<?xml version="1.0" encoding="UTF-8"?>
<svg width="378px" height="425px" viewBox="0 0 378 425" version="1.1" xmlns="http://www.w3.org/2000/svg" xmlns:xlink="http://www.w3.org/1999/xlink">
    <!-- Generator: Sketch 47.1 (45422) - http://www.bohemiancoding.com/sketch -->
    <title>man-wink</title>
    <desc>Created with Sketch.</desc>
    <defs></defs>
    <g id="Page-1" stroke="none" stroke-width="1" fill="grey" fill-rule="evenodd">
        <g id="man-wink" fill-rule="nonzero" fill="grey">
            <g id="boy-smiling">
                <circle id="Oval" cx="261.952" cy="252.896" r="14.974"></circle>
                <path d="M89.34375,245.953875 C86.21875,249.077875 86.21875,254.142875 89.34375,257.267875 C92.46775,260.392875 97.53275,260.391875 100.65675,257.267875 C106.35775,251.565875 115.63575,251.566875 121.33675,257.267875 C122.89875,258.829875 124.94575,259.610875 126.99375,259.610875 C129.04175,259.610875 131.08875,258.829875 132.65075,257.267875 C135.77575,254.143875 135.77575,249.078875 132.65075,245.953875 C120.71275,234.015875 101.28475,234.014875 89.34375,245.953875 Z" id="Shape" transform="translate(110.997250, 248.305625) rotate(13.000000) translate(-110.997250, -248.305625) "></path>
                <path d="M192.680695,337.011582 C188.564695,341.126582 178.021645,347.893582 169.478467,347.893582 C160.935288,347.893582 150.35634,342.065404 146.24134,337.949404 C143.11734,334.825404 138.05234,334.825404 134.92834,337.949404 C131.80334,341.073404 131.80334,346.138404 134.92834,349.263404 C142.06534,356.401404 155.74387,363.893582 169.479467,363.893582 C183.215064,363.893582 196.857695,355.462582 203.994695,348.325582 C207.119695,345.201582 207.119695,340.136582 203.994695,337.011582 C200.869695,333.887582 195.804695,333.887582 192.680695,337.011582 Z" id="Shape" transform="translate(169.461517, 349.281082) rotate(-336.000000) translate(-169.461517, -349.281082) "></path>
                <path d="M377.881,254.178 C377.881,232.447 362.171,214.327 341.515,210.548 L341.515,76.715 C341.515,59.353 332.878,43.257 318.411,33.658 C304.823,24.643 287.953,22.597 272.7,27.972 L222.474,10.924 C183.88,-2.177 143.255,-3.521 104.992,7.036 C54.9,20.857 26.182,50.083 21.749,91.627 C17.826,96.801 14.709,102.612 12.591,108.882 L8.695,120.413 C6.604,126.604 8.909,133.11 14.433,136.602 C19.955,140.094 26.822,139.388 31.519,134.843 C33.123,133.29 34.877,131.982 36.723,130.888 L36.723,210.549 C16.067,214.328 0.357,232.447 0.357,254.179 C0.357,276.78 17.348,295.475 39.225,298.193 C44.719,328.529 59.156,356.512 81.231,378.905 C110.052,408.141 148.366,424.241 189.119,424.241 C189.124,424.241 189.129,424.241 189.134,424.241 C229.835,424.237 268.099,408.385 296.879,379.606 C319.36,357.125 333.952,328.857 339.265,298.161 C361.02,295.329 377.881,276.691 377.881,254.178 Z M309.565,46.991 C319.702,53.716 325.515,64.55 325.515,76.715 L325.515,181.404 C300.684,177.545 281.618,156.021 281.618,130.125 L280.956,42.165 C290.725,39.59 300.912,41.25 309.565,46.991 Z M26.195,118.604 L27.75,114.003 C31.823,101.948 40.868,92.161 52.565,87.153 C64.261,82.145 77.586,82.353 89.121,87.726 C113.347,99.009 142.634,92.909 160.34,72.893 L162.322,70.652 C165.25,67.343 164.94,62.287 161.631,59.36 C158.32,56.433 153.265,56.742 150.338,60.051 L148.356,62.292 C135.308,77.042 113.727,81.536 95.876,73.222 C80.223,65.931 62.14,65.648 46.267,72.445 C44.822,73.064 43.417,73.755 42.034,74.478 C51.333,49.687 73.839,32.229 109.249,22.459 C144.41,12.757 181.784,14.008 217.333,26.074 L264.956,42.239 L265.58,83.576 C244.375,112.407 213.449,131.924 178.207,138.635 C142.121,145.506 105.306,138.235 74.544,118.161 C59.512,108.354 40.562,108.773 26.195,118.604 Z M16.357,254.178 C16.357,241.315 24.966,230.431 36.723,226.968 L36.723,270.33 C36.723,274.076 36.858,277.801 37.121,281.502 C25.162,278.169 16.357,267.186 16.357,254.178 Z M285.566,368.29 C259.808,394.048 225.561,408.235 189.133,408.239 C189.127,408.239 189.126,408.239 189.119,408.239 C152.686,408.239 118.414,393.83 92.625,367.671 C66.894,341.569 52.723,306.999 52.723,270.329 L52.723,127.116 C57.254,127.454 61.75,128.92 65.798,131.561 C100.044,153.908 141.026,162.003 181.198,154.353 C213.807,148.143 243.101,132.09 265.617,108.415 L265.617,130.124 C265.617,164.855 291.834,193.561 325.514,197.534 L325.514,271.842 C325.515,308.276 311.328,342.529 285.566,368.29 Z M341.206,281.476 C341.404,278.282 341.515,275.071 341.515,271.843 L341.515,226.968 C353.272,230.431 361.881,241.315 361.881,254.178 C361.881,267.153 353.121,278.114 341.206,281.476 Z" id="Shape"></path>
            </g>
        </g>
    </g>
</svg>