<?xml version="1.0" encoding="UTF-8"?>
<svg width="378px" height="425px" viewBox="0 0 378 425" version="1.1" xmlns="http://www.w3.org/2000/svg" xmlns:xlink="http://www.w3.org/1999/xlink">
    <!-- Generator: Sketch 47.1 (45422) - http://www.bohemiancoding.com/sketch -->
    <title>man-anonymous</title>
    <desc>Created with Sketch.</desc>
    <defs></defs>
    <g id="Page-1" stroke="none" stroke-width="1" fill="grey" fill-rule="evenodd">
        <g id="man-anonymous" fill-rule="nonzero" fill="grey">
            <g id="boy-smiling" transform="translate(0.000000, 25.000000)">
                <path d="M36.8103538,134.61133 L36.8103538,100 L36.8103538,100 C36.8103538,44.771525 81.5818788,3.85670157e-14 136.810354,2.84217094e-14 L136.810354,2.84217094e-14 L242.43121,2.84217094e-14 L242.43121,2.84217094e-14 C297.659685,1.82764032e-14 342.43121,44.771525 342.43121,100 L342.43121,148.169281 C342.43121,151.855677 342.231739,155.495484 341.843001,159.078498 L341.588148,186.151077 C362.270192,189.932834 378,208.066056 378,229.812912 C378,252.342339 361.117741,270.993938 339.335311,273.828005 C334.015612,304.546402 319.405214,332.835028 296.895869,355.332432 C268.079582,384.132431 229.767337,399.995997 189,400 C148.195617,400 109.833309,383.888252 80.9759697,354.63092 C58.8731365,332.221581 44.4179337,304.218163 38.9170066,273.860028 C17.0124231,271.140045 0,252.431404 0,229.813913 C0,208.066056 15.7298079,189.933835 36.411852,186.152078 L36.411852,134.565465 C36.3672232,134.591899 36.5029517,134.606927 36.8103538,134.61133 Z M16.0201736,229.812912 C16.0201736,242.830403 24.8362753,253.821417 36.8103538,257.156849 C36.5470222,253.453149 36.411852,249.725431 36.411852,245.976697 L36.411852,202.583058 C24.6400282,206.048585 16.0201736,216.940526 16.0201736,229.812912 Z M186,16 L129.564196,16 C105.854732,16.911142 88,24.2444753 76,38 C58,58.633287 51.778166,72.1460847 51.778166,93.7860298 C51.778166,139.928677 51.778166,195.333333 51.778166,260 C51.7784963,274.66728 57.5191076,292.66728 69,314 C93.4959402,359.516063 151.796266,384.873546 189,385 C257.276322,385.232069 322,332 325,262 C325.085918,259.995245 325.085918,259.328578 325,260 L325,91.8928913 C314.298429,42.4532477 289.456369,17.6111883 250.473822,17.366713 C211.491274,17.1222377 190,16.6666667 186,16 Z M341.278758,257.13083 C353.208781,253.766377 361.979826,242.797379 361.979826,229.812912 C361.979826,216.940526 353.359972,206.048585 341.588148,202.583058 L341.588148,247.490801 C341.588148,250.721157 341.477008,253.9345 341.278758,257.13083 Z" id="Shape"></path>
            </g>
        </g>
    </g>
</svg>