<?xml version="1.0" encoding="UTF-8"?>
<svg width="1610px" height="694px" viewBox="0 0 1610 694" version="1.1" xmlns="http://www.w3.org/2000/svg" xmlns:xlink="http://www.w3.org/1999/xlink">
    <!-- Generator: Sketch 63.1 (92452) - https://sketch.com -->
    <title>Group 2</title>
    <desc>Created with Sketch.</desc>
    <g id="-" stroke="none" stroke-width="1" fill="none" fill-rule="evenodd">
        <g id="imagineyourdata-404" transform="translate(-148.000000, -285.000000)">
            <g id="Group-2" transform="translate(141.000000, 269.347824)">
                <path d="M796.654654,543.652176 C779.235675,543.652176 763.284962,540.537217 749.059939,534.316882 C730.449185,526.198819 712.038649,510.633606 694.32411,488.06213 C676.447489,465.270211 663.128215,440.139676 655.10042,423.098452 L655.10042,423.098452 C610.642456,328.691218 650.914907,215.431291 744.88396,170.73881 C789.999784,149.279136 838.690932,146.83509 881.995258,163.837977 C924.613122,180.62042 960.061269,215.287523 981.79924,261.475184 C1003.85184,308.33376 1008.89543,359.639538 996.014729,405.961382 C982.666852,454.018019 950.727289,492.154708 906.145381,513.365186 C876.312876,527.550232 850.379858,536.521315 826.849458,540.795998 C816.888674,542.64618 806.783922,543.602006 796.654654,543.652176 Z" id="Path" stroke="#5E5E5E" stroke-width="2" fill-opacity="0.4" fill="#FFFFFF" fill-rule="nonzero" opacity="0.71" style="mix-blend-mode: multiply;"></path>
                <path d="M796.813805,543.715836 C779.455447,543.709262 763.559065,540.579232 749.381192,534.335455 C730.832133,526.18678 712.479774,510.569393 694.818337,487.925648 C676.995299,465.060758 663.712862,439.852177 655.706552,422.758408 L655.706552,422.758408 C611.367559,328.060085 651.456968,214.486269 745.08207,169.699394 C790.032757,148.194393 838.553527,145.761623 881.713586,162.830256 C924.189488,179.677547 959.527397,214.458757 981.207206,260.788825 C1003.2008,307.791875 1008.24627,359.248632 995.427936,405.700207 C982.14471,453.89144 950.330743,492.126884 905.912018,513.382166 C876.188707,527.597169 850.349337,536.584532 826.902445,540.862755 C816.977027,542.714553 806.907803,543.669343 796.813805,543.715836 Z" id="Path" stroke="#5E5E5E" stroke-width="2" fill-opacity="0.4" fill="#FFFFFF" fill-rule="nonzero" opacity="0.71" style="mix-blend-mode: multiply;" transform="translate(820.003895, 347.652675) rotate(97.000000) translate(-820.003895, -347.652675) "></path>
                <path d="M806.31407,461.522661 C796.189639,461.533192 786.920509,459.728577 778.656295,456.114198 C767.844121,451.397155 757.152862,442.342418 746.870409,429.206479 C736.493885,415.942243 728.767652,401.313119 724.112052,391.392378 L724.112052,391.392378 C698.329336,336.432137 721.805964,270.439745 776.450838,244.351672 C802.686589,231.825148 830.988827,230.372055 856.148223,240.249045 C880.908761,249.998055 901.491138,270.168291 914.097725,297.056969 C926.886775,324.336229 929.786969,354.216078 922.272069,381.203931 C914.484575,409.202494 895.897089,431.434499 869.971818,443.815555 C852.623625,452.095711 837.54511,457.336641 823.865932,459.840707 C818.075299,460.924388 812.201533,461.487242 806.31407,461.522661 Z" id="Path" stroke="#5E5E5E" stroke-width="2" fill-opacity="0.4" fill="#FFFFFF" fill-rule="nonzero" opacity="0.71" style="mix-blend-mode: multiply;" transform="translate(820.002287, 347.646300) rotate(201.000000) translate(-820.002287, -347.646300) "></path>
                <path d="M801.494052,503.67672 C787.709904,503.67672 775.088179,501.19652 763.83258,496.234718 C749.106753,489.759155 734.540656,477.34022 720.526535,459.329687 C706.384193,441.143253 695.848618,421.089657 689.498944,407.490974 L689.498944,407.490974 C654.334421,332.155184 686.222823,241.759042 760.59103,206.075172 C796.296221,188.9411 834.827374,186.982189 869.092407,200.544193 C902.81426,213.930388 930.859407,241.591005 948.053292,278.448181 C965.496037,315.84074 969.478284,356.785405 959.277379,393.755637 C948.706483,432.110434 923.425162,462.551637 888.142517,479.486742 C864.532725,490.812526 844.009614,497.976538 825.388579,501.392085 C817.505999,502.870375 809.509647,503.634932 801.494052,503.67672 Z" id="Path" stroke="#5E5E5E" stroke-width="2" fill-opacity="0.4" fill="#FFFFFF" fill-rule="nonzero" opacity="0.71" style="mix-blend-mode: multiply;" transform="translate(820.001787, 347.652060) rotate(266.000000) translate(-820.001787, -347.652060) "></path>
                <path d="M781.144594,678.652176 C751.779812,678.652176 724.890223,673.378255 700.909788,662.84664 C669.535921,649.10199 638.49958,622.748612 608.636545,584.532967 C578.500275,545.944092 556.046744,503.395718 542.51355,474.543313 L542.51355,474.543313 C467.566654,314.702932 535.457644,122.943158 693.869955,47.2745592 C769.925865,10.941299 852.00903,6.80329933 925.011131,35.5907953 C996.856,64.0050599 1056.61422,122.699746 1093.25992,200.899827 C1130.43602,280.235829 1138.93847,367.101367 1117.22428,445.528632 C1094.72253,526.893066 1040.87906,591.462089 965.723224,627.373435 C915.431816,651.390061 871.714132,666.578954 832.046764,673.816396 C815.254951,676.948929 798.220436,678.567233 781.144594,678.652176 Z" id="Path" stroke="#5E5E5E" stroke-width="2" fill-opacity="0.4" fill="#FFFFFF" fill-rule="nonzero" opacity="0.71" style="mix-blend-mode: multiply;"></path>
                <path d="M780.604293,678.366219 C751.223659,678.366219 724.319843,673.099951 700.32704,662.578783 C668.936989,648.84777 637.885337,622.518944 608.008273,584.338074 C577.857846,545.784312 555.394523,503.274065 541.855601,474.44742 L541.855601,474.44742 C466.876995,314.749753 534.815125,123.152548 693.317087,47.5408913 C769.416041,11.2349728 851.543741,7.09606596 924.583675,35.8546002 C996.465771,64.2402901 1056.25303,122.880805 1092.91424,201.011066 C1130.10607,280.276235 1138.60835,367.065981 1116.87815,445.426425 C1094.35981,526.721535 1040.48374,591.237514 965.285365,627.121835 C914.965495,651.120389 871.223382,666.298505 831.534205,673.531844 C814.733156,676.66258 797.689357,678.280413 780.604293,678.366219 Z" id="Path" stroke="#5E5E5E" stroke-width="2" fill-opacity="0.4" fill="#FFFFFF" fill-rule="nonzero" opacity="0.71" style="mix-blend-mode: multiply;" transform="translate(819.999048, 347.652055) rotate(97.000000) translate(-819.999048, -347.652055) "></path>
                <path d="M797.132109,540.306193 C780.04804,540.306193 764.403542,537.231614 750.451092,531.099704 C732.19695,523.097034 714.138067,507.755637 696.760752,485.510058 C679.224439,463.047219 666.157502,438.28048 658.281513,421.486098 L658.281513,421.486098 C614.664244,328.446356 654.145489,216.840907 746.301157,172.812884 C790.546349,151.672256 838.300961,149.271017 880.775223,166.03286 C922.576189,182.577365 957.347957,216.745155 978.674869,262.263784 C1000.31046,308.44361 1005.26473,359.003383 992.638599,404.6491 C979.554528,452.00429 948.234749,489.581155 904.513169,510.476293 C875.256362,524.450444 849.82329,533.287102 826.74594,537.496071 C816.976946,539.317844 807.066617,540.258257 797.132109,540.306193 Z" id="Path" stroke="#5E5E5E" stroke-width="2" fill-opacity="0.4" fill="#FFFFFF" fill-rule="nonzero" opacity="0.71" style="mix-blend-mode: multiply;" transform="translate(819.999439, 347.653615) rotate(201.000000) translate(-819.999439, -347.653615) "></path>
                <path d="M788.738017,610.809263 C765.406232,610.809263 744.040979,606.614887 724.987063,598.241252 C700.058616,587.312947 675.398034,566.360231 651.669405,535.976592 C627.723668,505.296212 609.882152,471.468073 599.12863,448.528973 L599.12863,448.528973 C539.575578,321.447909 593.513555,168.993284 719.378146,108.837831 C779.807453,79.9534082 845.02652,76.6655946 903.031054,99.5545766 C960.1161,122.146797 1007.59845,168.812802 1036.71725,230.985761 C1066.25751,294.061834 1073.0153,363.123458 1055.76426,425.475577 C1037.88754,490.162837 995.107832,541.496321 935.393665,570.045329 C895.435233,589.138203 860.699733,601.212857 829.18221,606.965907 C815.840355,609.45597 802.305623,610.742157 788.738017,610.809263 Z" id="Path" stroke="#5E5E5E" stroke-width="2" fill-opacity="0.4" fill="#FFFFFF" fill-rule="nonzero" opacity="0.71" style="mix-blend-mode: multiply;" transform="translate(819.999563, 347.652205) rotate(266.000000) translate(-819.999563, -347.652205) "></path>
                <path d="M303.072702,79.5408235 C300.407506,79.5408235 297.966947,79.0626631 295.790413,78.1080657 C292.94283,76.862235 290.125844,74.4736177 287.415317,71.0098718 C284.679988,67.5122974 282.641947,63.6558773 281.413569,61.0408116 L281.413569,61.0408116 C274.610807,46.5535242 280.772157,29.1736418 295.149705,22.3158983 C302.052562,19.0230636 309.502554,18.6482517 316.128428,21.2576039 C322.649269,23.8331252 328.073192,29.1530667 331.39944,36.2408066 C334.773832,43.4315018 335.545777,51.3045519 333.575185,58.4127161 C331.533122,65.7870871 326.646384,71.639123 319.825218,74.8937202 C315.260755,77.0703147 311.292909,78.4468297 307.692654,79.1026795 C306.16861,79.3865476 304.622534,79.5331733 303.072702,79.5408235 Z" id="Path" stroke="#53B9C9" stroke-width="2" fill-opacity="0.4" fill="#FFFFFF" fill-rule="nonzero" opacity="0.71" style="mix-blend-mode: multiply;" transform="translate(306.643718, 49.540823) rotate(266.000000) translate(-306.643718, -49.540823) "></path>
                <path d="M308.731929,97 C308.113223,97 307.546665,96.2269741 307.041398,94.6837083 C306.380352,92.6696153 305.726409,88.8080174 305.097179,83.2082948 C304.462192,77.5538829 303.989075,71.3193371 303.703916,67.0916475 L303.703916,67.0916475 C302.124704,43.6705329 303.555017,15.5730563 306.892662,4.48637093 C308.495111,-0.837045052 310.224573,-1.44299103 311.762723,2.77546177 C313.276489,6.93922114 314.535614,15.5397933 315.307779,26.9983061 C316.09112,38.6232633 316.270321,51.351361 315.812863,62.8428931 C315.338812,74.764793 314.204391,84.2255843 312.620906,89.4871831 C311.561299,93.0060109 310.640192,95.2313768 309.804418,96.2916673 C309.450622,96.7505873 309.091712,96.9876323 308.731929,97 Z" id="Path-Copy-2" stroke="#53B9C9" stroke-width="2" fill-opacity="0.4" fill="#FFFFFF" fill-rule="nonzero" opacity="0.71" style="mix-blend-mode: multiply;" transform="translate(309.560915, 48.500000) rotate(252.000000) translate(-309.560915, -48.500000) "></path>
                <path d="M23.7043474,207.652176 C21.9910069,207.652176 20.4220762,207.341372 19.0228757,206.720884 C17.1922863,205.911094 15.3813673,204.358493 13.638885,202.107058 C11.8804597,199.833634 10.5702902,197.326961 9.78061882,195.627169 L9.78061882,195.627169 C5.40741476,186.210432 9.36828277,174.913508 18.6109919,170.455975 C23.0485426,168.315632 27.8378234,168.072005 32.0973139,169.768084 C36.289283,171.442173 39.7760904,174.900135 41.9143932,179.507165 C44.083645,184.181117 44.5798952,189.2986 43.3130865,193.918907 C42.0003315,198.712248 38.8588572,202.516071 34.4738219,204.631559 C31.5395243,206.046346 28.9887662,206.94108 26.6743163,207.367383 C25.6945738,207.551897 24.7006677,207.647204 23.7043474,207.652176 Z" id="Path-Copy" stroke="#53B9C9" stroke-width="2" fill-opacity="0.4" fill="#FFFFFF" fill-rule="nonzero" opacity="0.71" style="mix-blend-mode: multiply;" transform="translate(26.000000, 188.152176) rotate(388.000000) translate(-26.000000, -188.152176) "></path>
                <path d="M806.702436,500.717518 C793.129848,500.717518 780.701041,498.266504 769.616596,493.376505 C755.114697,486.994638 740.768162,474.75981 726.963333,457.018572 C713.032194,439.104066 702.651863,419.35195 696.395266,405.957962 L696.395266,405.957962 C661.746199,331.756171 693.116082,242.744639 766.331402,207.627285 C801.483075,190.765232 839.422222,188.84854 873.165721,202.215418 C906.374321,215.408983 933.997934,242.658121 950.939792,278.960498 C968.126861,315.790198 972.061168,356.113656 962.028726,392.518527 C951.632418,430.286794 926.748913,460.257031 892.013236,476.923278 C868.769452,488.069253 848.563635,495.117723 830.229495,498.475333 C822.468372,499.928603 814.594994,500.678955 806.702436,500.717518 Z" id="Path" stroke="#5E5E5E" stroke-width="2" fill-opacity="0.4" fill="#FFFFFF" fill-rule="nonzero" opacity="0.71" style="mix-blend-mode: multiply;" transform="translate(824.875907, 347.068265) rotate(183.000000) translate(-824.875907, -347.068265) "></path>
                <g id="Group" transform="translate(181.000000, 425.652176) rotate(57.000000) translate(-181.000000, -425.652176) translate(169.000000, 415.652176)" fill="#FFFFFF" fill-opacity="0.4" fill-rule="nonzero" opacity="0.71" stroke="#53B9C9">
                    <path d="M18.8689935,0.0305993385 C19.0326228,0.109971164 19.0433242,0.342411445 18.8991075,0.726255632 C18.7113237,1.22741395 18.1890184,2.10960636 17.3472275,3.34796179 C16.4971126,4.59836177 15.4997286,5.94793761 14.8139618,6.85852082 L14.8139618,6.85852082 C11.0147146,11.9030198 5.57744204,17.5283432 2.69844944,19.3923312 C1.31610731,20.2873704 0.749547766,20.1908521 1.10222372,19.1214931 C1.45150161,18.066568 2.66698129,16.1270514 4.52583773,13.6591452 C6.41170626,11.1553958 8.65599549,8.50106366 10.8460441,6.18401998 C13.117969,3.78013169 15.1214464,1.96972915 16.4876422,1.08503782 C17.4014822,0.493456481 18.0458001,0.151518277 18.457775,0.0394993491 C18.6339858,-0.0100044417 18.7716009,-0.0129828484 18.8689935,0.0305993385 Z" id="Path-Copy-3" style="mix-blend-mode: multiply;"></path>
                    <path d="M23.9273151,17.9370973 C23.7954065,18.0431896 23.4830581,18.0152355 22.9928088,17.8520521 C22.3526443,17.6393634 21.2560237,17.1263611 19.7338144,16.3277327 C18.1968212,15.5212379 16.5505232,14.593062 15.4417586,13.9575426 L15.4417586,13.9575426 C9.29939519,10.4367134 2.63929793,5.64265787 0.602473796,3.27537889 C-0.375568877,2.13872739 -0.157145574,1.74401013 1.21639962,2.16313414 C2.57119,2.57758563 4.97152699,3.75399297 7.97651288,5.47659502 C11.0251401,7.22422622 14.21845,9.25406234 16.9695311,11.1929024 C19.8237578,13.204261 21.9271551,14.9304471 22.8939163,16.0538385 C23.540332,16.8052399 23.8956378,17.3234866 23.9803266,17.638482 C24.018676,17.7734567 24.0009356,17.8733889 23.9273151,17.9370973 Z" id="Path-Copy-4" style="mix-blend-mode: multiply;"></path>
                </g>
                <g id="Group-Copy-7" transform="translate(42.000000, 610.652176) rotate(145.000000) translate(-42.000000, -610.652176) translate(30.000000, 600.652176)" fill="#FFFFFF" fill-opacity="0.4" fill-rule="nonzero" opacity="0.71" stroke="#53B9C9">
                    <path d="M18.8689935,0.0305993385 C19.0326228,0.109971164 19.0433242,0.342411445 18.8991075,0.726255632 C18.7113237,1.22741395 18.1890184,2.10960636 17.3472275,3.34796179 C16.4971126,4.59836177 15.4997286,5.94793761 14.8139618,6.85852082 L14.8139618,6.85852082 C11.0147146,11.9030198 5.57744204,17.5283432 2.69844944,19.3923312 C1.31610731,20.2873704 0.749547766,20.1908521 1.10222372,19.1214931 C1.45150161,18.066568 2.66698129,16.1270514 4.52583773,13.6591452 C6.41170626,11.1553958 8.65599549,8.50106366 10.8460441,6.18401998 C13.117969,3.78013169 15.1214464,1.96972915 16.4876422,1.08503782 C17.4014822,0.493456481 18.0458001,0.151518277 18.457775,0.0394993491 C18.6339858,-0.0100044417 18.7716009,-0.0129828484 18.8689935,0.0305993385 Z" id="Path-Copy-3" style="mix-blend-mode: multiply;"></path>
                    <path d="M23.9273151,17.9370973 C23.7954065,18.0431896 23.4830581,18.0152355 22.9928088,17.8520521 C22.3526443,17.6393634 21.2560237,17.1263611 19.7338144,16.3277327 C18.1968212,15.5212379 16.5505232,14.593062 15.4417586,13.9575426 L15.4417586,13.9575426 C9.29939519,10.4367134 2.63929793,5.64265787 0.602473796,3.27537889 C-0.375568877,2.13872739 -0.157145574,1.74401013 1.21639962,2.16313414 C2.57119,2.57758563 4.97152699,3.75399297 7.97651288,5.47659502 C11.0251401,7.22422622 14.21845,9.25406234 16.9695311,11.1929024 C19.8237578,13.204261 21.9271551,14.9304471 22.8939163,16.0538385 C23.540332,16.8052399 23.8956378,17.3234866 23.9803266,17.638482 C24.018676,17.7734567 24.0009356,17.8733889 23.9273151,17.9370973 Z" id="Path-Copy-4" style="mix-blend-mode: multiply;"></path>
                </g>
                <g id="Group-Copy-2" transform="translate(1379.000000, 137.652176) rotate(212.000000) translate(-1379.000000, -137.652176) translate(1367.000000, 127.652176)" fill="#FFFFFF" fill-opacity="0.4" fill-rule="nonzero" opacity="0.71" stroke="#53B9C9">
                    <path d="M18.8689935,0.0305993385 C19.0326228,0.109971164 19.0433242,0.342411445 18.8991075,0.726255632 C18.7113237,1.22741395 18.1890184,2.10960636 17.3472275,3.34796179 C16.4971126,4.59836177 15.4997286,5.94793761 14.8139618,6.85852082 L14.8139618,6.85852082 C11.0147146,11.9030198 5.57744204,17.5283432 2.69844944,19.3923312 C1.31610731,20.2873704 0.749547766,20.1908521 1.10222372,19.1214931 C1.45150161,18.066568 2.66698129,16.1270514 4.52583773,13.6591452 C6.41170626,11.1553958 8.65599549,8.50106366 10.8460441,6.18401998 C13.117969,3.78013169 15.1214464,1.96972915 16.4876422,1.08503782 C17.4014822,0.493456481 18.0458001,0.151518277 18.457775,0.0394993491 C18.6339858,-0.0100044417 18.7716009,-0.0129828484 18.8689935,0.0305993385 Z" id="Path-Copy-3" style="mix-blend-mode: multiply;"></path>
                    <path d="M23.9273151,17.9370973 C23.7954065,18.0431896 23.4830581,18.0152355 22.9928088,17.8520521 C22.3526443,17.6393634 21.2560237,17.1263611 19.7338144,16.3277327 C18.1968212,15.5212379 16.5505232,14.593062 15.4417586,13.9575426 L15.4417586,13.9575426 C9.29939519,10.4367134 2.63929793,5.64265787 0.602473796,3.27537889 C-0.375568877,2.13872739 -0.157145574,1.74401013 1.21639962,2.16313414 C2.57119,2.57758563 4.97152699,3.75399297 7.97651288,5.47659502 C11.0251401,7.22422622 14.21845,9.25406234 16.9695311,11.1929024 C19.8237578,13.204261 21.9271551,14.9304471 22.8939163,16.0538385 C23.540332,16.8052399 23.8956378,17.3234866 23.9803266,17.638482 C24.018676,17.7734567 24.0009356,17.8733889 23.9273151,17.9370973 Z" id="Path-Copy-4" style="mix-blend-mode: multiply;"></path>
                </g>
                <g id="Group-Copy-6" transform="translate(1374.420482, 612.652176) rotate(324.000000) translate(-1374.420482, -612.652176) translate(1362.420482, 602.652176)" fill="#FFFFFF" fill-opacity="0.4" fill-rule="nonzero" opacity="0.71" stroke="#53B9C9">
                    <path d="M18.8689935,0.0305993385 C19.0326228,0.109971164 19.0433242,0.342411445 18.8991075,0.726255632 C18.7113237,1.22741395 18.1890184,2.10960636 17.3472275,3.34796179 C16.4971126,4.59836177 15.4997286,5.94793761 14.8139618,6.85852082 L14.8139618,6.85852082 C11.0147146,11.9030198 5.57744204,17.5283432 2.69844944,19.3923312 C1.31610731,20.2873704 0.749547766,20.1908521 1.10222372,19.1214931 C1.45150161,18.066568 2.66698129,16.1270514 4.52583773,13.6591452 C6.41170626,11.1553958 8.65599549,8.50106366 10.8460441,6.18401998 C13.117969,3.78013169 15.1214464,1.96972915 16.4876422,1.08503782 C17.4014822,0.493456481 18.0458001,0.151518277 18.457775,0.0394993491 C18.6339858,-0.0100044417 18.7716009,-0.0129828484 18.8689935,0.0305993385 Z" id="Path-Copy-3" style="mix-blend-mode: multiply;"></path>
                    <path d="M23.9273151,17.9370973 C23.7954065,18.0431896 23.4830581,18.0152355 22.9928088,17.8520521 C22.3526443,17.6393634 21.2560237,17.1263611 19.7338144,16.3277327 C18.1968212,15.5212379 16.5505232,14.593062 15.4417586,13.9575426 L15.4417586,13.9575426 C9.29939519,10.4367134 2.63929793,5.64265787 0.602473796,3.27537889 C-0.375568877,2.13872739 -0.157145574,1.74401013 1.21639962,2.16313414 C2.57119,2.57758563 4.97152699,3.75399297 7.97651288,5.47659502 C11.0251401,7.22422622 14.21845,9.25406234 16.9695311,11.1929024 C19.8237578,13.204261 21.9271551,14.9304471 22.8939163,16.0538385 C23.540332,16.8052399 23.8956378,17.3234866 23.9803266,17.638482 C24.018676,17.7734567 24.0009356,17.8733889 23.9273151,17.9370973 Z" id="Path-Copy-4" style="mix-blend-mode: multiply;"></path>
                </g>
                <g id="Group-Copy-5" transform="translate(1526.000000, 215.652176) rotate(302.000000) translate(-1526.000000, -215.652176) translate(1519.000000, 209.652176)" fill="#FFFFFF" fill-opacity="0.4" fill-rule="nonzero" opacity="0.71" stroke="#53B9C9">
                    <path d="M10.6867907,0.867717645 C10.7776958,0.91137215 10.783641,1.0392143 10.7035207,1.25032861 C10.5991963,1.52596568 10.3090267,2.01117151 9.84136507,2.69226699 C9.36907901,3.37998698 8.81497678,4.12225369 8.43399523,4.62307446 L8.43399523,4.62307446 C6.32330238,7.39754892 3.30259538,10.4914768 1.70315505,11.5166702 C0.9351872,12.0089417 0.620431895,11.9558567 0.816362981,11.3677092 C1.01040625,10.7875004 1.68567274,9.72076628 2.71837076,8.36341787 C3.7660755,6.98635568 5.01290285,5.52647302 6.22959652,4.252099 C7.491777,2.92996044 8.60482002,1.93423904 9.36381771,1.44765881 C9.87150657,1.12228907 10.229461,0.934223062 10.4583359,0.872612651 C10.5562308,0.845385566 10.6326836,0.843747443 10.6867907,0.867717645 Z" id="Path-Copy-3" style="mix-blend-mode: multiply;"></path>
                    <path d="M13.3332087,10.70961 C13.2617583,10.7692869 13.0925696,10.7535628 12.8270178,10.6617721 C12.4802621,10.5421347 11.8862593,10.2535709 11.0617292,9.80434241 C10.2291912,9.35068909 9.33744646,8.82859017 8.73686568,8.47111048 L8.73686568,8.47111048 C5.40975215,6.4906441 1.80219947,3.79398784 0.698919726,2.46239342 C0.169146612,1.82302695 0.287459234,1.60099849 1.03146288,1.83675575 C1.76530767,2.06988471 3.0654902,2.73161384 4.6931909,3.70057749 C6.34453065,4.68362004 8.07424018,5.82540286 9.56440911,6.9160004 C11.1104486,8.04738962 12.2497888,9.01836931 12.7734511,9.65027694 C13.1235929,10.0729402 13.3160502,10.364454 13.3619233,10.5416389 C13.3826959,10.6175622 13.3730865,10.6737741 13.3332087,10.70961 Z" id="Path-Copy-4" style="mix-blend-mode: multiply;"></path>
                </g>
                <g id="Group-Copy-4" transform="translate(1153.500000, 83.152176) rotate(307.000000) translate(-1153.500000, -83.152176) translate(1147.000000, 77.652176)" fill="#FFFFFF" fill-opacity="0.4" fill-rule="nonzero" opacity="0.71" stroke="#53B9C9">
                    <path d="M9.47098564,0.0674651616 C9.55280028,0.107151075 9.55815096,0.223371215 9.48604264,0.415293309 C9.39215074,0.665872465 9.1309981,1.10696867 8.71010262,1.72614639 C8.28504516,2.35134638 7.78635315,3.0261343 7.44346976,3.4814259 L7.44346976,3.4814259 C5.54384619,6.00367541 2.82520989,8.81633709 1.38571359,9.74833109 C0.694542532,10.1958507 0.411262758,10.1475915 0.587600735,9.61291203 C0.762239681,9.0854495 1.36997952,8.11569119 2.29940774,6.88173809 C3.242342,5.62986337 4.36448662,4.30269732 5.45951092,3.14417548 C6.59547335,1.94223134 7.59721207,1.03703007 8.28030999,0.594684404 C8.73722996,0.298893733 9.05938892,0.127924631 9.2653764,0.0719151669 C9.35348178,0.0471632715 9.42228933,0.0456740682 9.47098564,0.0674651616 Z" id="Path-Copy-3" style="mix-blend-mode: multiply;"></path>
                    <path d="M12.0996894,8.81821689 C12.0337351,8.87126302 11.877561,8.85728596 11.6324363,8.77569426 C11.312354,8.66934992 10.7640437,8.41284879 10.0029391,8.01353455 C9.23444249,7.61028716 8.41129348,7.14619923 7.85691121,6.8284395 L7.85691121,6.8284395 C4.78572949,5.06802494 1.45568086,2.67099716 0.437268794,1.48735767 C-0.051752542,0.919031918 0.0574591093,0.721673291 0.744231707,0.931235294 C1.4216269,1.13846104 2.62179539,1.72666471 4.12428834,2.58796574 C5.64860196,3.46178133 7.2452569,4.47669939 8.62079745,5.44611943 C10.0479108,6.45179874 11.0996095,7.3148918 11.5829901,7.87658746 C11.9061979,8.25228816 12.0838508,8.51141152 12.1261952,8.6689092 C12.1453699,8.73639656 12.1364997,8.78636268 12.0996894,8.81821689 Z" id="Path-Copy-4" style="mix-blend-mode: multiply;"></path>
                </g>
                <g id="Group-Copy-3" transform="translate(1318.794998, 276.805732) rotate(162.000000) translate(-1318.794998, -276.805732) translate(1309.794998, 269.305732)" fill="#FFFFFF" fill-opacity="0.4" fill-rule="nonzero" opacity="0.71" stroke="#53B9C9">
                    <path d="M14.7325284,0.544829591 C14.8507051,0.600389869 14.8584338,0.763098065 14.7542774,1.031789 C14.6186558,1.38259982 14.2414353,2.00013451 13.6334751,2.86698331 C13.0195032,3.74226329 12.2991704,4.68696638 11.8038943,5.32437463 L11.8038943,5.32437463 C9.05999363,8.85552393 5.13307453,12.7932503 3.0538021,14.0980419 C2.0554439,14.7245693 1.646262,14.6570065 1.90097241,13.9084552 C2.15322867,13.1700077 3.0310751,11.812346 4.37358253,10.0848117 C5.73559869,8.33218709 7.35647425,6.47415462 8.93817602,4.85222404 C10.5790106,3.16950224 12.0259666,1.90222046 13.0126636,1.28293653 C13.6726591,0.86882959 14.1379998,0.629472848 14.4355373,0.551059598 C14.5628006,0.516406944 14.6621893,0.51432206 14.7325284,0.544829591 Z" id="Path-Copy-3" style="mix-blend-mode: multiply;"></path>
                    <path d="M17.7396333,12.4138134 C17.6461981,12.4867518 17.4249513,12.4675334 17.0776914,12.3553448 C16.6242415,12.2091213 15.8474686,11.8564323 14.769237,11.3073752 C13.6805335,10.75291 12.5144057,10.1147891 11.7290309,9.67786951 L11.7290309,9.67786951 C7.37819008,7.25729949 2.66062119,3.96138629 1.21787076,2.33388199 C0.525090536,1.55243408 0.679807042,1.28106597 1.65273489,1.56921372 C2.61237807,1.85414912 4.31261677,2.66292917 6.44114845,3.84721808 C8.60059274,5.04871453 10.8625206,6.44422686 12.811203,7.77717941 C14.8329469,9.15998846 16.3228534,10.3467414 17.0076425,11.119073 C17.4655203,11.6356614 17.7171953,11.991956 17.7771832,12.2085154 C17.8043473,12.3013105 17.7917812,12.3700139 17.7396333,12.4138134 Z" id="Path-Copy-4" style="mix-blend-mode: multiply;"></path>
                </g>
                <g id="Group-Copy" transform="translate(341.000000, 214.152176) rotate(7.000000) translate(-341.000000, -214.152176) translate(332.000000, 206.652176)" fill="#FFFFFF" fill-opacity="0.4" fill-rule="nonzero" opacity="0.71" stroke="#53B9C9">
                    <path d="M14.7325284,0.544829591 C14.8507051,0.600389869 14.8584338,0.763098065 14.7542774,1.031789 C14.6186558,1.38259982 14.2414353,2.00013451 13.6334751,2.86698331 C13.0195032,3.74226329 12.2991704,4.68696638 11.8038943,5.32437463 L11.8038943,5.32437463 C9.05999363,8.85552393 5.13307453,12.7932503 3.0538021,14.0980419 C2.0554439,14.7245693 1.646262,14.6570065 1.90097241,13.9084552 C2.15322867,13.1700077 3.0310751,11.812346 4.37358253,10.0848117 C5.73559869,8.33218709 7.35647425,6.47415462 8.93817602,4.85222404 C10.5790106,3.16950224 12.0259666,1.90222046 13.0126636,1.28293653 C13.6726591,0.86882959 14.1379998,0.629472848 14.4355373,0.551059598 C14.5628006,0.516406944 14.6621893,0.51432206 14.7325284,0.544829591 Z" id="Path-Copy-3" style="mix-blend-mode: multiply;"></path>
                    <path d="M17.7396333,12.4138134 C17.6461981,12.4867518 17.4249513,12.4675334 17.0776914,12.3553448 C16.6242415,12.2091213 15.8474686,11.8564323 14.769237,11.3073752 C13.6805335,10.75291 12.5144057,10.1147891 11.7290309,9.67786951 L11.7290309,9.67786951 C7.37819008,7.25729949 2.66062119,3.96138629 1.21787076,2.33388199 C0.525090536,1.55243408 0.679807042,1.28106597 1.65273489,1.56921372 C2.61237807,1.85414912 4.31261677,2.66292917 6.44114845,3.84721808 C8.60059274,5.04871453 10.8625206,6.44422686 12.811203,7.77717941 C14.8329469,9.15998846 16.3228534,10.3467414 17.0076425,11.119073 C17.4655203,11.6356614 17.7171953,11.991956 17.7771832,12.2085154 C17.8043473,12.3013105 17.7917812,12.3700139 17.7396333,12.4138134 Z" id="Path-Copy-4" style="mix-blend-mode: multiply;"></path>
                </g>
                <g id="Group-Copy-8" transform="translate(464.000000, 633.152176) rotate(7.000000) translate(-464.000000, -633.152176) translate(455.000000, 625.652176)" fill="#FFFFFF" fill-opacity="0.4" fill-rule="nonzero" opacity="0.71" stroke="#53B9C9">
                    <path d="M14.7325284,0.544829591 C14.8507051,0.600389869 14.8584338,0.763098065 14.7542774,1.031789 C14.6186558,1.38259982 14.2414353,2.00013451 13.6334751,2.86698331 C13.0195032,3.74226329 12.2991704,4.68696638 11.8038943,5.32437463 L11.8038943,5.32437463 C9.05999363,8.85552393 5.13307453,12.7932503 3.0538021,14.0980419 C2.0554439,14.7245693 1.646262,14.6570065 1.90097241,13.9084552 C2.15322867,13.1700077 3.0310751,11.812346 4.37358253,10.0848117 C5.73559869,8.33218709 7.35647425,6.47415462 8.93817602,4.85222404 C10.5790106,3.16950224 12.0259666,1.90222046 13.0126636,1.28293653 C13.6726591,0.86882959 14.1379998,0.629472848 14.4355373,0.551059598 C14.5628006,0.516406944 14.6621893,0.51432206 14.7325284,0.544829591 Z" id="Path-Copy-3" style="mix-blend-mode: multiply;"></path>
                    <path d="M17.7396333,12.4138134 C17.6461981,12.4867518 17.4249513,12.4675334 17.0776914,12.3553448 C16.6242415,12.2091213 15.8474686,11.8564323 14.769237,11.3073752 C13.6805335,10.75291 12.5144057,10.1147891 11.7290309,9.67786951 L11.7290309,9.67786951 C7.37819008,7.25729949 2.66062119,3.96138629 1.21787076,2.33388199 C0.525090536,1.55243408 0.679807042,1.28106597 1.65273489,1.56921372 C2.61237807,1.85414912 4.31261677,2.66292917 6.44114845,3.84721808 C8.60059274,5.04871453 10.8625206,6.44422686 12.811203,7.77717941 C14.8329469,9.15998846 16.3228534,10.3467414 17.0076425,11.119073 C17.4655203,11.6356614 17.7171953,11.991956 17.7771832,12.2085154 C17.8043473,12.3013105 17.7917812,12.3700139 17.7396333,12.4138134 Z" id="Path-Copy-4" style="mix-blend-mode: multiply;"></path>
                </g>
                <path d="M806.707473,500.764559 C793.09097,500.768616 780.622947,498.332805 769.504631,493.464569 C754.958412,487.111118 740.570447,474.925268 726.728185,457.25219 C712.759275,439.406506 702.353413,419.728235 696.082033,406.384002 L696.082033,406.384002 C661.351114,332.457847 692.858794,243.747149 766.325329,208.723613 C801.597615,191.906608 839.6603,189.981161 873.507529,203.287143 C906.818199,216.420642 934.520079,243.562467 951.501951,279.729997 C968.729613,316.422891 972.660206,356.602648 962.580458,392.883338 C952.135111,430.522767 927.158871,460.397567 892.304007,477.019285 C868.98047,488.135486 848.706401,495.167379 830.31157,498.520651 C822.524743,499.971973 814.625584,500.7229 806.707473,500.764559 Z" id="Path" stroke="#5E5E5E" stroke-width="2" fill-opacity="0.4" fill="#FFFFFF" fill-rule="nonzero" opacity="0.71" style="mix-blend-mode: multiply;" transform="translate(825.002384, 347.652609) rotate(280.000000) translate(-825.002384, -347.652609) "></path>
                <path d="M819.924789,390.649533 C816.117438,390.647197 812.630593,389.959899 809.520523,388.58978 C805.451587,386.801654 801.425412,383.375496 797.55042,378.40835 C793.639973,373.392694 790.725332,367.863252 788.968364,364.113827 L788.968364,364.113827 C779.238264,343.342265 788.025568,318.43527 808.558829,308.617417 C818.417128,303.903246 829.059461,303.37219 838.526988,307.117914 C847.844442,310.815057 855.597182,318.445108 860.354773,328.607356 C865.181223,338.917219 866.29053,350.202997 863.481366,360.390117 C860.570323,370.958755 853.594269,379.342931 843.852637,384.00236 C837.33391,387.11847 831.666811,389.088251 826.524231,390.025344 C824.347303,390.43097 822.138786,390.639856 819.924789,390.649533 Z" id="Path" stroke="#5E5E5E" stroke-width="2" fill-opacity="0.4" fill="#FFFFFF" fill-rule="nonzero" opacity="0.71" style="mix-blend-mode: multiply;" transform="translate(825.001193, 347.649533) rotate(384.000000) translate(-825.001193, -347.649533) "></path>
                <path d="M814.384017,436.804959 C806.46285,436.804959 799.209365,435.384434 792.740623,432.547797 C784.277497,428.845746 775.905414,421.747613 767.849825,411.454452 C759.72053,401.060764 753.663657,389.600613 750.013056,381.829391 L750.013056,381.829391 C729.796012,338.777342 748.109558,287.128071 790.841339,266.74728 C811.357449,256.961178 833.49943,255.846673 853.191804,263.600441 C872.572013,271.253681 888.691855,287.062759 898.577092,308.125482 C908.605405,329.494159 910.898985,352.890856 905.041606,374.014742 C898.971784,395.929735 884.447506,413.320974 864.174189,422.993436 C850.608063,429.462141 838.815199,433.553154 828.114906,435.502496 C823.585306,436.346216 818.990236,436.782088 814.384017,436.804959 Z" id="Path" stroke="#5E5E5E" stroke-width="2" fill-opacity="0.4" fill="#FFFFFF" fill-rule="nonzero" opacity="0.71" style="mix-blend-mode: multiply;" transform="translate(825.000008, 347.652176) rotate(449.000000) translate(-825.000008, -347.652176) "></path>
                <text id="4" font-family="Montserrat-Medium, Montserrat Medium" font-size="210" font-weight="normal" fill="#53B9C9">
                    <tspan x="341" y="427.652176">4</tspan>
                </text>
                <text id="4" font-family="Montserrat-Medium, Montserrat Medium" font-size="210" font-weight="normal" fill="#53B9C9">
                    <tspan x="1162" y="427.652176">4</tspan>
                </text>
                <path d="M1582.90836,95.7484833 C1583.23224,100.437368 1582.69775,104.789853 1581.30266,108.736462 C1579.4828,113.899474 1575.67231,119.149244 1569.9796,124.343987 C1564.2311,129.586524 1557.77391,133.646471 1553.37656,136.129265 L1553.37656,136.129265 C1529.01529,149.879607 1498.04864,141.178065 1484.37741,116.727328 C1477.81308,104.988237 1476.25566,91.9275904 1479.98685,79.9496949 C1483.67199,68.1607464 1492.26208,57.9639795 1504.18079,51.240168 C1516.27265,44.4189927 1529.86729,42.0923527 1542.4655,44.6847488 C1555.53523,47.370136 1566.304,55.2474347 1572.79192,66.8475113 C1577.1312,74.6099928 1580.00688,81.4212746 1581.58489,87.674513 C1582.26373,90.3208383 1582.70663,93.0228089 1582.90836,95.7484833 Z" id="Path" stroke="#53B9C9" stroke-width="2" fill-opacity="0.4" fill="#FFFFFF" fill-rule="nonzero" opacity="0.71" style="mix-blend-mode: multiply;" transform="translate(1530.500000, 93.152176) rotate(61.000000) translate(-1530.500000, -93.152176) "></path>
                <path d="M1615.93624,66.1130579 C1616.27044,67.1513342 1615.29093,68.5234282 1612.99673,70.2126997 C1610.00348,72.4200777 1603.93297,75.622837 1594.95764,79.7317912 C1585.89444,83.880224 1575.77866,88.073337 1568.8998,90.8568705 L1568.8998,90.8568705 C1530.79108,106.276535 1483.27626,119.195808 1463.02888,119.639875 C1453.30692,119.853376 1451.36409,117.281676 1457.55031,112.400634 C1463.65873,107.590327 1477.28567,100.788265 1495.93017,93.2451202 C1514.84551,85.5924722 1535.92254,78.3521265 1555.28661,72.8543133 C1575.37558,67.1496952 1591.72731,63.8950448 1601.33618,63.6834259 C1607.76268,63.5429268 1611.96258,63.8752454 1614.17818,64.6995975 C1615.13286,65.0430612 1615.72119,65.5160786 1615.93624,66.1130579 Z" id="Path-Copy-2" stroke="#53B9C9" stroke-width="2" fill-opacity="0.4" fill="#FFFFFF" fill-rule="nonzero" opacity="0.71" style="mix-blend-mode: multiply;" transform="translate(1535.000000, 91.652176) rotate(36.000000) translate(-1535.000000, -91.652176) "></path>
                <path d="M1474.22344,708.596188 C1473.08122,708.596188 1472.03526,708.388985 1471.10246,707.975326 C1469.88207,707.435466 1468.67479,706.400399 1467.51314,704.899442 C1466.34085,703.383826 1465.46741,701.712711 1464.94096,700.579516 L1464.94096,700.579516 C1462.02549,694.301691 1464.66607,686.770409 1470.82787,683.79872 C1473.78624,682.371825 1476.9791,682.209407 1479.81876,683.340126 C1482.6134,684.456185 1484.93794,686.761493 1486.36348,689.832847 C1487.80964,692.948815 1488.14048,696.36047 1487.29594,699.440674 C1486.42077,702.636235 1484.32645,705.172117 1481.40309,706.582443 C1479.4469,707.525634 1477.74639,708.122124 1476.20342,708.406325 C1475.55026,708.529335 1474.88766,708.592873 1474.22344,708.596188 Z" id="Path-Copy" stroke="#53B9C9" stroke-width="2" fill-opacity="0.4" fill="#FFFFFF" fill-rule="nonzero" opacity="0.71" style="mix-blend-mode: multiply;" transform="translate(1475.753880, 695.596188) rotate(388.000000) translate(-1475.753880, -695.596188) "></path>
            </g>
        </g>
    </g>
</svg>