<?xml version="1.0" encoding="UTF-8"?>
<svg width="20px" height="20px" viewBox="0 0 20 20" version="1.1" xmlns="http://www.w3.org/2000/svg" xmlns:xlink="http://www.w3.org/1999/xlink">
    <!-- Generator: Sketch 63.1 (92452) - https://sketch.com -->
    <title>icon/right arrow</title>
    <desc>Created with Sketch.</desc>
    <defs>
        <path d="M4.00781297,5.25625044 L0.0937504688,1.17812544 C-0.0312501562,1.05312481 -0.0312501562,0.928126061 0.0937504688,0.803125436 L0.796875469,0.100000436 C0.937501172,-0.0250001894 1.06249992,-0.0328126113 1.17187547,0.0765629356 L5.95312547,5.06875044 C6,5.11562567 6.02343797,5.17812504 6.02343797,5.25625044 C6.02343797,5.33437583 6,5.3968752 5.95312547,5.44375044 L1.17187547,10.4359379 C1.04687484,10.5609386 0.921876094,10.5609386 0.796875469,10.4359379 L0.0937504688,9.70937544 C-0.0312501562,9.58437481 -0.0312501562,9.45937606 0.0937504688,9.33437544 L4.00781297,5.25625044 Z" id="path-1"></path>
    </defs>
    <g id="icon/right-arrow" stroke="none" stroke-width="1" fill="none" fill-rule="evenodd">
        <g id="color-del-icono" transform="translate(7.000000, 6.000000)">
            <mask id="mask-2" fill="white">
                <use xlink:href="#path-1"></use>
            </mask>
            <use id="Mask" fill="#243D48" xlink:href="#path-1"></use>
            <g id="colores/gris" mask="url(#mask-2)" fill="#243D48">
                <g transform="translate(-7.000000, -5.000000)" id="Rectangle">
                    <rect x="0" y="0" width="20" height="20"></rect>
                </g>
            </g>
        </g>
    </g>
</svg>