<?xml version="1.0" encoding="UTF-8"?>
<svg width="26px" height="26px" viewBox="0 0 26 26" version="1.1" xmlns="http://www.w3.org/2000/svg" xmlns:xlink="http://www.w3.org/1999/xlink">
    <!-- Generator: Sketch 63.1 (92452) - https://sketch.com -->
    <title>Combined Shape</title>
    <desc>Created with Sketch.</desc>
    <g id="Page-1" stroke="none" stroke-width="1" fill="none" fill-rule="evenodd">
        <path d="M1.24857072,0.199429226 L1.33273992,0.272108495 L13.0001917,11.9391917 L24.6671979,0.272046347 C24.9603377,-0.0210933936 25.434751,-0.0210931619 25.727891,0.272046865 C25.9943819,0.538537798 26.0186086,0.954841347 25.8005708,1.24857072 L25.7278915,1.33273992 L14.0601917,13.0001917 L25.7279537,24.6671979 C26.0210934,24.9603377 26.0210932,25.434751 25.7279531,25.727891 C25.4614622,25.9943819 25.0451587,26.0186086 24.7514293,25.8005708 L24.6672601,25.7278915 L13.0001917,14.0601917 L1.33280207,25.7279537 C1.03966233,26.0210934 0.565249039,26.0210932 0.272109013,25.7279531 C0.00561807946,25.4614622 -0.0186085605,25.0451587 0.199429226,24.7514293 L0.272108495,24.6672601 L11.9391917,13.0001917 L0.272046347,1.33280207 C-0.0210933936,1.03966233 -0.0210931619,0.565249039 0.272046865,0.272109013 C0.538537798,0.00561807946 0.954841347,-0.0186085605 1.24857072,0.199429226 Z" id="Combined-Shape" fill="#BDBDBD" fill-rule="nonzero"></path>
    </g>
</svg>