<?xml version="1.0" encoding="UTF-8"?>
<svg width="121px" height="12px" viewBox="0 0 121 12" version="1.1" xmlns="http://www.w3.org/2000/svg" xmlns:xlink="http://www.w3.org/1999/xlink">
    <!-- Generator: Sketch 63.1 (92452) - https://sketch.com -->
    <title>Group 3</title>
    <desc>Created with Sketch.</desc>
    <g id="Page-1" stroke="none" stroke-width="1" fill="none" fill-rule="evenodd">
        <g id="imagineyourdata-home" transform="translate(-411.000000, -151.000000)" fill="#243C47">
            <g id="Group-6" transform="translate(190.000000, 108.000000)">
                <g id="Group-3" transform="translate(221.000000, 43.000000)">
                    <polygon id="Path" points="27 0 27 12 25.8280622 12 25.8280622 2.40307923 21.2861852 10.4757832 20.7138148 10.4757832 16.1719378 2.45439966 16.1719378 12 15 12 15 0.0038490324 16.0062841 0.0038490324 21.0265788 8.8989629 25.9974245 0.0038490324"></polygon>
                    <path d="M40,4.10952344 C40,6.66481603 38.2258197,8.2074889 35.3020492,8.2074889 L32.2147541,8.2074889 L32.2147541,12 L31,12 L31,-1.53504342e-14 L35.3032787,-1.53504342e-14 C38.2258197,-0.00384307478 40,1.5388298 40,4.10952344 Z M38.7840164,4.10952344 C38.7840164,2.19080802 37.5692623,1.09348247 35.2688525,1.09348247 L32.2147541,1.09348247 L32.2147541,7.09348247 L35.2688525,7.09348247 C37.5692623,7.09348247 38.7864754,5.99615333 38.7864754,4.10952344 L38.7840164,4.10952344 Z" id="Shape" fill-rule="nonzero"></path>
                    <path d="M50.271295,8.79144385 L43.7060183,8.79144385 L42.2906207,12 L41,12 L46.3880895,0 L47.616952,0 L53,12 L51.6854322,12 L50.271295,8.79144385 Z M49.8226027,7.76470588 L46.9955887,1.31807487 L44.1597521,7.76470588 L49.8226027,7.76470588 Z" id="Shape" fill-rule="nonzero"></path>
                    <polygon id="Path" points="57.9125777 1.09673971 54 1.09673971 54 0 63 0 63 1.09673971 59.0886126 1.09673971 59.0886126 12 57.9125777 12"></polygon>
                    <polygon id="Path" points="76 0 76 12 74.7522396 12 74.7522396 6.46124238 67.2643972 6.46124238 67.2643972 12 66 12 66 0.0038490324 67.2643972 0.0038490324 67.2643972 5.35015503 74.7522396 5.35015503 74.7522396 0"></polygon>
                    <polygon id="Path" points="84.577105 7.84817706 84.577105 12 83.422895 12 83.422895 7.84817706 79 0 80.2476348 0 84.0402081 6.73965573 87.8304163 0.0038490324 89 0.0038490324"></polygon>
                    <path d="M10.2829412,2.87915639 C9.83020186,2.00155341 9.15164276,1.26875582 8.32137594,0.760799598 C7.46901048,0.249857809 6.49750814,-0.0129660594 5.51097468,0.000492083582 C4.51966269,-0.0119911685 3.54394493,0.254841321 2.68962854,0.77205415 C1.85282104,1.286062 1.16992125,2.02722399 0.715902343,2.91417055 C0.231033091,3.86686975 -0.0147598061,4.92901048 0.000837028609,6.00417033 C-0.0168296087,7.08803761 0.245444554,8.15732417 0.760897949,9.10292365 C1.2588469,9.99690545 1.98678634,10.7324608 2.86474658,11.2287835 C3.80354107,11.7522568 4.85787952,12.017592 5.92566392,11.999095 C6.76860325,12.0051577 7.603946,11.8349788 8.38096472,11.4988927 C9.11180269,11.1844177 9.75862032,10.6942626 10.2671319,10.0695646 L10.293886,10.0345505 L9.5934139,9.22797423 L9.55571488,9.27549345 C9.13927122,9.80340352 8.60190254,10.2167591 7.99181353,10.47848 C7.3443634,10.7560291 6.6489874,10.8959766 5.94755367,10.8898964 C5.10976035,10.9026243 4.28172204,10.7038199 3.53603238,10.3109122 C2.83614239,9.93704648 2.24968918,9.37250167 1.84079251,8.67900219 C1.42485123,7.9649085 1.19491011,7.15263311 1.17315499,6.32054829 L10.9736845,6.32054829 L10.9992226,5.95915212 L10.9992226,5.95915212 C11.0157209,4.88693117 10.7693871,3.82770059 10.2829412,2.87915639 L10.2829412,2.87915639 Z M1.19747694,5.35140631 C1.24853321,4.58297072 1.47250786,3.83723998 1.85173738,3.17302525 C2.21772769,2.53267475 2.74279617,2.00397141 3.37307532,1.64115567 C4.02856666,1.27448102 4.76484438,1.08757218 5.51097468,1.09843616 C7.00939562,1.06878683 8.40902148,1.86470126 9.18115685,3.1855303 C9.56644081,3.84177193 9.78786198,4.58583279 9.82568851,5.35140631 L1.19747694,5.35140631 Z" id="Shape" fill-rule="nonzero"></path>
                    <path d="M90.2899278,11.7061912 C90.0982351,11.5158415 89.9936844,11.2572128 90.0002955,10.9897229 C89.993807,10.725491 90.0985707,10.470307 90.2899278,10.284235 C90.4732054,10.0989408 90.7263612,9.99613016 90.9895228,10.0001182 C91.2559891,9.9960202 91.5126526,10.0986138 91.7003113,10.284235 C91.8972903,10.4673078 92.006073,10.7236139 91.999738,10.9897229 C92.0054275,11.258925 91.8969979,11.5183756 91.7003113,11.7061912 C91.5150753,11.8964388 91.257696,12.0027977 90.9895228,11.9999157 C90.72448,12.0034327 90.4703074,11.8967185 90.2899278,11.7061912 Z" id="Path"></path>
                    <path d="M99.8645513,11.2261204 C98.988345,10.7270491 98.2606654,9.982913 97.7620781,9.07609972 C96.745974,7.16335439 96.745974,4.83385907 97.7620781,2.92111374 C98.2628994,2.01510915 98.99324,1.2729836 99.8717516,0.777398077 C100.798037,0.25275737 101.836483,-0.0146177681 102.888657,0.000616400091 C103.678572,-0.00815190243 104.462889,0.14076234 105.199937,0.439447607 C105.88531,0.716223993 106.501125,1.15452692 107,1.72063297 L106.245174,2.51380777 C105.365143,1.58066095 104.257904,1.11408754 102.923458,1.11408754 C102.076597,1.10293083 101.241568,1.32370617 100.500573,1.75468022 C99.7891588,2.16435043 99.1981477,2.77099549 98.7917139,3.50874404 C97.9677155,5.05977707 97.9677155,6.94878548 98.7917139,8.49981851 C99.1986826,9.23712976 99.7895623,9.84363989 100.500573,10.2538823 C101.241542,10.6817975 102.075651,10.8999411 102.921058,10.886909 C104.269105,10.886909 105.376343,10.4148712 106.242774,9.47079561 L106.9976,10.2627094 C106.498412,10.8305572 105.882872,11.2716836 105.197537,11.5527218 C104.458924,11.8557135 103.671919,12.0072425 102.879056,11.9991191 C101.827761,12.0173892 100.789666,11.7511943 99.8645513,11.2261204 Z" id="Path"></path>
                    <path d="M111.930432,11.2093368 C111.035552,10.7121175 110.290094,9.97064338 109.775389,9.06581074 C108.741537,7.15907281 108.741537,4.83449865 109.775389,2.92776072 C110.290094,2.02292808 111.035552,1.28145394 111.930432,0.784234623 C113.851991,-0.258730455 116.146816,-0.261557857 118.070779,0.776669237 C118.961849,1.276127 119.704015,2.01726667 120.217275,2.92019533 C121.260908,4.83012728 121.260908,7.16470507 120.217275,9.07463702 C119.705087,9.98004606 118.962793,10.7234933 118.070779,11.2244676 C116.146456,12.2611785 113.852354,12.2583519 111.930432,11.2169022 L111.930432,11.2093368 Z M117.457843,10.2472719 C118.173282,9.83650813 118.764858,9.22952341 119.167226,8.49336318 C119.99426,6.9331683 119.99426,5.04527238 119.167226,3.4850775 C118.764858,2.74891728 118.173282,2.14193255 117.457843,1.7311688 C115.924207,0.888995041 114.085551,0.888995041 112.551915,1.7311688 C111.829495,2.14012674 111.230381,2.74704319 110.820554,3.4850775 C109.982186,5.04225791 109.982186,6.93618277 110.820554,8.49336318 C111.230381,9.23139749 111.829495,9.83831395 112.551915,10.2472719 C114.085551,11.0894456 115.924207,11.0894456 117.457843,10.2472719 L117.457843,10.2472719 Z" id="Shape" fill-rule="nonzero"></path>
                </g>
            </g>
        </g>
    </g>
</svg>