<?xml version="1.0" encoding="utf-8"?>
<!-- Generator: Adobe Illustrator 24.0.3, SVG Export Plug-In . SVG Version: 6.00 Build 0)  -->
<svg version="1.1" id="Capa_1" xmlns="http://www.w3.org/2000/svg" xmlns:xlink="http://www.w3.org/1999/xlink" x="0px" y="0px"
	 viewBox="0 0 1610 694" style="enable-background:new 0 0 1610 694;" xml:space="preserve">
<style type="text/css">
	.st0{opacity:0.71;fill:#FFFFFF;fill-opacity:0.4;stroke:#5E5E5E;stroke-width:2;enable-background:new    ;}
	.st1{opacity:0.71;fill:#FFFFFF;fill-opacity:0.4;stroke:#53B9C9;stroke-width:2;enable-background:new    ;}
	.st2{opacity:0.71;}
	.st3{fill:#FFFFFF;fill-opacity:0.4;stroke:#53B9C9;}
</style>
<title>Group 2</title>
<desc>Created with Sketch.</desc>
<g id="_x2D_">
	<g id="imagineyourdata-404" transform="translate(-148.000000, -285.000000)">
		<g id="Group-2" transform="translate(141.000000, 269.347824)">
			<path id="Path" class="st0" d="M796.7,543.7c-17.4,0-33.4-3.1-47.6-9.3c-18.6-8.1-37-23.7-54.7-46.3
				c-17.9-22.8-31.2-47.9-39.2-65l0,0c-44.5-94.4-4.2-207.7,89.8-252.4c45.1-21.5,93.8-23.9,137.1-6.9
				c42.6,16.8,78.1,51.4,99.8,97.6c22.1,46.9,27.1,98.2,14.2,144.5c-13.3,48.1-45.3,86.2-89.9,107.4c-29.8,14.2-55.8,23.2-79.3,27.4
				C816.9,542.6,806.8,543.6,796.7,543.7z"/>
			<path id="Path_1_" class="st0" d="M628.2,300.7c2.1-17.2,7.2-32.6,15.1-45.9c10.3-17.4,28.1-33.7,52.7-48.5
				c24.9-14.9,51.5-25,69.4-30.9l0,0c99.4-32.5,207.2,21.2,240.3,119.5c15.9,47.2,12.4,95.7-9.8,136.5
				c-21.9,40.1-60.7,70.9-109.4,86.8c-49.3,16.1-101,14.8-145.6-3.5c-46.2-19.1-80.3-55.3-96-102c-10.5-31.2-16.3-58-17.6-81.8
				C626.8,320.9,627,310.8,628.2,300.7z"/>
			<path id="Path_2_" class="st0" d="M873.6,246.2c9.5,3.6,17.5,8.6,23.9,15c8.4,8.3,15.1,20.6,20,36.5c4.9,16.1,6.9,32.5,7.7,43.5
				l0,0c4.4,60.5-41.2,113.7-101.6,118.5c-29,2.3-55.9-6.5-75.9-24.7c-19.6-18-31.6-44.2-33.7-73.8c-2.2-30.1,5.8-59,22.5-81.5
				c17.3-23.3,42.6-37.4,71.3-39.7c19.2-1.5,35.1-1,48.8,1.6C862.4,242.6,868.1,244.2,873.6,246.2z"/>
			<path id="Path_3_" class="st0" d="M976.9,355.2c1,13.8-0.6,26.5-4.8,38.1c-5.4,15.1-16.8,30.5-33.8,45.8
				c-17.2,15.4-36.4,27.3-49.5,34.6l0,0c-72.7,40.3-165.1,14.8-205.9-56.9c-19.6-34.4-24.2-72.7-13.1-107.9
				c11-34.6,36.6-64.5,72.2-84.2c36.1-20,76.7-26.8,114.2-19.2c39,7.9,71.1,31,90.5,65c12.9,22.8,21.5,42.7,26.2,61.1
				C975,339.3,976.3,347.2,976.9,355.2z"/>
			<path id="Path_4_" class="st0" d="M781.1,678.7c-29.4,0-56.3-5.3-80.2-15.8c-31.4-13.7-62.4-40.1-92.3-78.3
				c-30.1-38.6-52.6-81.1-66.1-110l0,0c-74.9-159.8-7.1-351.6,151.4-427.3C769.9,10.9,852,6.8,925,35.6
				c71.8,28.4,131.6,87.1,168.2,165.3c37.2,79.3,45.7,166.2,24,244.6c-22.5,81.4-76.3,145.9-151.5,181.8
				c-50.3,24-94,39.2-133.7,46.4C815.3,676.9,798.2,678.6,781.1,678.7z"/>
			<path id="Path_5_" class="st0" d="M496.6,268.2c3.6-29.2,12.1-55.2,25.5-77.8c17.5-29.5,47.4-57.1,88.9-82.1
				c41.9-25.2,86.9-42.3,117.1-52.3l0,0c167.6-55,349.5,35.8,405.3,202.4c26.8,80,20.9,162-16.6,231
				c-36.9,67.9-102.4,120.1-184.4,146.9c-83.2,27.3-170.4,25.1-245.5-6c-77.9-32.3-135.4-93.6-161.9-172.6
				c-17.7-52.9-27.4-98.1-29.8-138.4C494.1,302.3,494.6,285.2,496.6,268.2z"/>
			<path id="Path_6_" class="st0" d="M910.4,176c15.9,6.1,29.5,14.6,40.3,25.3c14.2,14,25.5,34.8,33.8,61.8
				c8.3,27.3,11.6,55.1,13,73.6l0,0c7.4,102.5-69.5,192.5-171.3,200.6c-48.9,3.9-94.3-11-128-41.9c-33.1-30.4-53.3-74.8-56.9-124.9
				c-3.6-50.9,9.8-99.8,38-137.9c29.2-39.5,71.9-63.4,120.2-67.2c32.3-2.6,59.2-1.7,82.3,2.6C891.5,169.8,901.1,172.5,910.4,176z"/>
			<path id="Path_7_" class="st0" d="M1084.7,360.5c1.6,23.3-1.1,44.9-8.1,64.5c-9.2,25.6-28.3,51.7-57,77.5
				c-28.9,26-61.4,46.2-83.6,58.5l0,0c-122.6,68.3-278.5,25.1-347.3-96.3c-33-58.3-40.9-123.1-22.1-182.6
				c18.6-58.5,61.8-109.1,121.8-142.5c60.9-33.9,129.3-45.4,192.7-32.6c65.8,13.3,120,52.4,152.6,110
				c21.8,38.5,36.3,72.3,44.2,103.4C1081.5,333.5,1083.7,347,1084.7,360.5z"/>
			<path id="Path_8_" class="st1" d="M336.8,51c0.2,2.7-0.1,5.1-0.9,7.4c-1,2.9-3.2,5.9-6.5,8.8c-3.3,3-7,5.3-9.5,6.7l0,0
				c-14,7.8-31.7,2.9-39.6-11c-3.8-6.7-4.7-14.1-2.5-20.9c2.1-6.7,7-12.5,13.9-16.3c6.9-3.9,14.7-5.2,22-3.7
				c7.5,1.5,13.7,6,17.4,12.6c2.5,4.4,4.1,8.3,5,11.8C336.4,47.9,336.7,49.5,336.8,51z"/>
			<path id="Path-Copy-2" class="st1" d="M355.9,34.3c0.2,0.6-0.4,1.4-1.7,2.3c-1.7,1.3-5.2,3.1-10.3,5.4c-5.2,2.4-11,4.7-14.9,6.3
				l0,0c-21.8,8.7-49,16.1-60.5,16.3c-5.6,0.1-6.7-1.3-3.1-4.1c3.5-2.7,11.3-6.6,21.9-10.9c10.8-4.3,22.9-8.4,33.9-11.6
				c11.5-3.2,20.8-5.1,26.3-5.2c3.7-0.1,6.1,0.1,7.3,0.6C355.5,33.7,355.8,34,355.9,34.3z"/>
			<path id="Path-Copy" class="st1" d="M14.8,204.3c-1.5-0.8-2.8-1.8-3.7-3c-1.2-1.6-2.1-3.8-2.6-6.6c-0.5-2.8-0.5-5.7-0.4-7.5l0,0
				c0.6-10.4,9.4-18.5,19.6-18.1c4.9,0.2,9.3,2.2,12.2,5.7c2.9,3.4,4.4,8.1,4.1,13.2c-0.3,5.1-2.2,9.9-5.5,13.4
				c-3.4,3.6-8,5.5-12.8,5.3c-3.3-0.1-5.9-0.5-8.2-1.2C16.6,205.1,15.7,204.8,14.8,204.3z"/>
			<path id="Path_9_" class="st0" d="M851.1,194.6c13.6,0.7,25.8,3.8,36.7,9.3c14.1,7.1,27.8,20.1,40.7,38.5
				c13,18.6,22.3,38.9,27.9,52.6l0,0C987,370.9,951,458.1,876,489.4c-36,15-74,14.9-107-0.2c-32.5-14.9-58.6-43.6-73.7-80.7
				c-15.2-37.7-17.1-78.2-5.1-114c12.4-37.2,38.8-65.8,74.3-80.6c23.8-9.9,44.3-15.9,62.8-18.3C835.3,194.5,843.2,194.2,851.1,194.6
				z"/>
			
				<g id="Group" transform="translate(181.000000, 425.652176) rotate(57.000000) translate(-181.000000, -425.652176) translate(169.000000, 415.652176)" class="st2">
				<path id="Path-Copy-3" class="st3" d="M18.9,0c0.2,0.1,0.2,0.3,0,0.7c-0.2,0.5-0.7,1.4-1.6,2.6c-0.9,1.3-1.8,2.6-2.5,3.5l0,0
					c-3.8,5-9.2,10.7-12.1,12.5c-1.4,0.9-1.9,0.8-1.6-0.3c0.3-1.1,1.6-3,3.4-5.5c1.9-2.5,4.1-5.2,6.3-7.5c2.3-2.4,4.3-4.2,5.6-5.1
					c0.9-0.6,1.6-0.9,2-1C18.6,0,18.8,0,18.9,0z"/>
				<path id="Path-Copy-4" class="st3" d="M23.9,17.9C23.8,18,23.5,18,23,17.9c-0.6-0.2-1.7-0.7-3.3-1.5c-1.5-0.8-3.2-1.7-4.3-2.4
					l0,0C9.3,10.4,2.6,5.6,0.6,3.3c-1-1.1-0.8-1.5,0.6-1.1C2.6,2.6,5,3.8,8,5.5c3,1.7,6.2,3.8,9,5.7c2.9,2,5,3.7,5.9,4.9
					c0.6,0.8,1,1.3,1.1,1.6C24,17.8,24,17.9,23.9,17.9z"/>
			</g>
			
				<g id="Group-Copy-7" transform="translate(42.000000, 610.652176) rotate(145.000000) translate(-42.000000, -610.652176) translate(30.000000, 600.652176)" class="st2">
				<path id="Path-Copy-3_1_" class="st3" d="M18.9,0c0.2,0.1,0.2,0.3,0,0.7c-0.2,0.5-0.7,1.4-1.6,2.6c-0.9,1.3-1.8,2.6-2.5,3.5l0,0
					c-3.8,5-9.2,10.7-12.1,12.5c-1.4,0.9-1.9,0.8-1.6-0.3c0.3-1.1,1.6-3,3.4-5.5c1.9-2.5,4.1-5.2,6.3-7.5c2.3-2.4,4.3-4.2,5.6-5.1
					c0.9-0.6,1.6-0.9,2-1C18.6,0,18.8,0,18.9,0z"/>
				<path id="Path-Copy-4_1_" class="st3" d="M23.9,17.9C23.8,18,23.5,18,23,17.9c-0.6-0.2-1.7-0.7-3.3-1.5
					c-1.5-0.8-3.2-1.7-4.3-2.4l0,0C9.3,10.4,2.6,5.6,0.6,3.3c-1-1.1-0.8-1.5,0.6-1.1C2.6,2.6,5,3.8,8,5.5c3,1.7,6.2,3.8,9,5.7
					c2.9,2,5,3.7,5.9,4.9c0.6,0.8,1,1.3,1.1,1.6C24,17.8,24,17.9,23.9,17.9z"/>
			</g>
			
				<g id="Group-Copy-2" transform="translate(1379.000000, 137.652176) rotate(212.000000) translate(-1379.000000, -137.652176) translate(1367.000000, 127.652176)" class="st2">
				<path id="Path-Copy-3_2_" class="st3" d="M18.9,0c0.2,0.1,0.2,0.3,0,0.7c-0.2,0.5-0.7,1.4-1.6,2.6c-0.9,1.3-1.8,2.6-2.5,3.5l0,0
					c-3.8,5-9.2,10.7-12.1,12.5c-1.4,0.9-1.9,0.8-1.6-0.3c0.3-1.1,1.6-3,3.4-5.5c1.9-2.5,4.1-5.2,6.3-7.5c2.3-2.4,4.3-4.2,5.6-5.1
					c0.9-0.6,1.6-0.9,2-1C18.6,0,18.8,0,18.9,0z"/>
				<path id="Path-Copy-4_2_" class="st3" d="M23.9,17.9C23.8,18,23.5,18,23,17.9c-0.6-0.2-1.7-0.7-3.3-1.5
					c-1.5-0.8-3.2-1.7-4.3-2.4l0,0C9.3,10.4,2.6,5.6,0.6,3.3c-1-1.1-0.8-1.5,0.6-1.1C2.6,2.6,5,3.8,8,5.5c3,1.7,6.2,3.8,9,5.7
					c2.9,2,5,3.7,5.9,4.9c0.6,0.8,1,1.3,1.1,1.6C24,17.8,24,17.9,23.9,17.9z"/>
			</g>
			
				<g id="Group-Copy-6" transform="translate(1374.420482, 612.652176) rotate(324.000000) translate(-1374.420482, -612.652176) translate(1362.420482, 602.652176)" class="st2">
				<path id="Path-Copy-3_3_" class="st3" d="M18.9,0c0.2,0.1,0.2,0.3,0,0.7c-0.2,0.5-0.7,1.4-1.6,2.6c-0.9,1.3-1.8,2.6-2.5,3.5l0,0
					c-3.8,5-9.2,10.7-12.1,12.5c-1.4,0.9-1.9,0.8-1.6-0.3c0.3-1.1,1.6-3,3.4-5.5c1.9-2.5,4.1-5.2,6.3-7.5c2.3-2.4,4.3-4.2,5.6-5.1
					c0.9-0.6,1.6-0.9,2-1C18.6,0,18.8,0,18.9,0z"/>
				<path id="Path-Copy-4_3_" class="st3" d="M23.9,17.9C23.8,18,23.5,18,23,17.9c-0.6-0.2-1.7-0.7-3.3-1.5
					c-1.5-0.8-3.2-1.7-4.3-2.4l0,0C9.3,10.4,2.6,5.6,0.6,3.3c-1-1.1-0.8-1.5,0.6-1.1C2.6,2.6,5,3.8,8,5.5c3,1.7,6.2,3.8,9,5.7
					c2.9,2,5,3.7,5.9,4.9c0.6,0.8,1,1.3,1.1,1.6C24,17.8,24,17.9,23.9,17.9z"/>
			</g>
			
				<g id="Group-Copy-5" transform="translate(1526.000000, 215.652176) rotate(302.000000) translate(-1526.000000, -215.652176) translate(1519.000000, 209.652176)" class="st2">
				<path id="Path-Copy-3_4_" class="st3" d="M10.7,0.9c0.1,0,0.1,0.2,0,0.4C10.6,1.5,10.3,2,9.8,2.7c-0.5,0.7-1,1.4-1.4,1.9l0,0
					c-2.1,2.8-5.1,5.9-6.7,6.9C0.9,12,0.6,12,0.8,11.4c0.2-0.6,0.9-1.6,1.9-3C3.8,7,5,5.5,6.2,4.3c1.3-1.3,2.4-2.3,3.1-2.8
					c0.5-0.3,0.9-0.5,1.1-0.6C10.6,0.8,10.6,0.8,10.7,0.9z"/>
				<path id="Path-Copy-4_4_" class="st3" d="M13.3,10.7c-0.1,0.1-0.2,0-0.5,0c-0.3-0.1-0.9-0.4-1.8-0.9c-0.8-0.5-1.7-1-2.3-1.3l0,0
					c-3.3-2-6.9-4.7-8-6C0.2,1.8,0.3,1.6,1,1.8c0.7,0.2,2,0.9,3.7,1.9c1.7,1,3.4,2.1,4.9,3.2C11.1,8,12.2,9,12.8,9.7
					c0.4,0.4,0.5,0.7,0.6,0.9C13.4,10.6,13.4,10.7,13.3,10.7z"/>
			</g>
			
				<g id="Group-Copy-4" transform="translate(1153.500000, 83.152176) rotate(307.000000) translate(-1153.500000, -83.152176) translate(1147.000000, 77.652176)" class="st2">
				<path id="Path-Copy-3_5_" class="st3" d="M9.5,0.1c0.1,0,0.1,0.2,0,0.3C9.4,0.7,9.1,1.1,8.7,1.7C8.3,2.4,7.8,3,7.4,3.5l0,0
					C5.5,6,2.8,8.8,1.4,9.7c-0.7,0.4-1,0.4-0.8-0.1c0.2-0.5,0.8-1.5,1.7-2.7c0.9-1.3,2.1-2.6,3.2-3.7C6.6,1.9,7.6,1,8.3,0.6
					c0.5-0.3,0.8-0.5,1-0.5C9.4,0,9.4,0,9.5,0.1z"/>
				<path id="Path-Copy-4_5_" class="st3" d="M12.1,8.8c-0.1,0.1-0.2,0-0.5,0C11.3,8.7,10.8,8.4,10,8C9.2,7.6,8.4,7.1,7.9,6.8l0,0
					C4.8,5.1,1.5,2.7,0.4,1.5c-0.5-0.6-0.4-0.8,0.3-0.6c0.7,0.2,1.9,0.8,3.4,1.7c1.5,0.9,3.1,1.9,4.5,2.9c1.4,1,2.5,1.9,3,2.4
					c0.3,0.4,0.5,0.6,0.5,0.8C12.1,8.7,12.1,8.8,12.1,8.8z"/>
			</g>
			
				<g id="Group-Copy-3" transform="translate(1318.794998, 276.805732) rotate(162.000000) translate(-1318.794998, -276.805732) translate(1309.794998, 269.305732)" class="st2">
				<path id="Path-Copy-3_6_" class="st3" d="M14.7,0.5c0.1,0.1,0.1,0.2,0,0.5c-0.1,0.4-0.5,1-1.1,1.8c-0.6,0.9-1.3,1.8-1.8,2.5l0,0
					c-2.7,3.5-6.7,7.5-8.8,8.8c-1,0.6-1.4,0.6-1.2-0.2c0.3-0.7,1.1-2.1,2.5-3.8c1.4-1.8,3-3.6,4.6-5.2c1.6-1.7,3.1-3,4.1-3.6
					c0.7-0.4,1.1-0.7,1.4-0.7C14.6,0.5,14.7,0.5,14.7,0.5z"/>
				<path id="Path-Copy-4_6_" class="st3" d="M17.7,12.4c-0.1,0.1-0.3,0.1-0.7-0.1c-0.5-0.1-1.2-0.5-2.3-1c-1.1-0.6-2.3-1.2-3-1.6
					l0,0C7.4,7.3,2.7,4,1.2,2.3C0.5,1.6,0.7,1.3,1.7,1.6c1,0.3,2.7,1.1,4.8,2.3c2.2,1.2,4.4,2.6,6.4,3.9c2,1.4,3.5,2.6,4.2,3.3
					c0.5,0.5,0.7,0.9,0.8,1.1C17.8,12.3,17.8,12.4,17.7,12.4z"/>
			</g>
			
				<g id="Group-Copy" transform="translate(341.000000, 214.152176) rotate(7.000000) translate(-341.000000, -214.152176) translate(332.000000, 206.652176)" class="st2">
				<path id="Path-Copy-3_7_" class="st3" d="M14.7,0.5c0.1,0.1,0.1,0.2,0,0.5c-0.1,0.4-0.5,1-1.1,1.8c-0.6,0.9-1.3,1.8-1.8,2.5l0,0
					c-2.7,3.5-6.7,7.5-8.8,8.8c-1,0.6-1.4,0.6-1.2-0.2c0.3-0.7,1.1-2.1,2.5-3.8c1.4-1.8,3-3.6,4.6-5.2c1.6-1.7,3.1-3,4.1-3.6
					c0.7-0.4,1.1-0.7,1.4-0.7C14.6,0.5,14.7,0.5,14.7,0.5z"/>
				<path id="Path-Copy-4_7_" class="st3" d="M17.7,12.4c-0.1,0.1-0.3,0.1-0.7-0.1c-0.5-0.1-1.2-0.5-2.3-1c-1.1-0.6-2.3-1.2-3-1.6
					l0,0C7.4,7.3,2.7,4,1.2,2.3C0.5,1.6,0.7,1.3,1.7,1.6c1,0.3,2.7,1.1,4.8,2.3c2.2,1.2,4.4,2.6,6.4,3.9c2,1.4,3.5,2.6,4.2,3.3
					c0.5,0.5,0.7,0.9,0.8,1.1C17.8,12.3,17.8,12.4,17.7,12.4z"/>
			</g>
			
				<g id="Group-Copy-8" transform="translate(464.000000, 633.152176) rotate(7.000000) translate(-464.000000, -633.152176) translate(455.000000, 625.652176)" class="st2">
				<path id="Path-Copy-3_8_" class="st3" d="M14.7,0.5c0.1,0.1,0.1,0.2,0,0.5c-0.1,0.4-0.5,1-1.1,1.8c-0.6,0.9-1.3,1.8-1.8,2.5l0,0
					c-2.7,3.5-6.7,7.5-8.8,8.8c-1,0.6-1.4,0.6-1.2-0.2c0.3-0.7,1.1-2.1,2.5-3.8c1.4-1.8,3-3.6,4.6-5.2c1.6-1.7,3.1-3,4.1-3.6
					c0.7-0.4,1.1-0.7,1.4-0.7C14.6,0.5,14.7,0.5,14.7,0.5z"/>
				<path id="Path-Copy-4_8_" class="st3" d="M17.7,12.4c-0.1,0.1-0.3,0.1-0.7-0.1c-0.5-0.1-1.2-0.5-2.3-1c-1.1-0.6-2.3-1.2-3-1.6
					l0,0C7.4,7.3,2.7,4,1.2,2.3C0.5,1.6,0.7,1.3,1.7,1.6c1,0.3,2.7,1.1,4.8,2.3c2.2,1.2,4.4,2.6,6.4,3.9c2,1.4,3.5,2.6,4.2,3.3
					c0.5,0.5,0.7,0.9,0.8,1.1C17.8,12.3,17.8,12.4,17.7,12.4z"/>
			</g>
			<path id="Path_10_" class="st0" d="M972.6,392.3c-2.4,13.4-6.9,25.3-13.6,35.4c-8.8,13.2-23.3,25.3-43.1,35.8
				c-20,10.7-41.2,17.5-55.4,21.3l0,0c-78.8,21.4-160.7-25.1-182.5-103.5c-10.4-37.7-5.7-75.5,13.3-106.5
				c18.7-30.5,50.3-53.1,88.8-63.5c39.1-10.6,79.4-7.5,113.4,8.7c35.3,16.8,60.3,46.6,70.7,83.8c6.9,24.9,10.3,46.1,10.4,64.8
				C974.6,376.5,973.9,384.5,972.6,392.3z"/>
			<path id="Path_11_" class="st0" d="M802.9,384.9c-3.5-1.6-6.4-3.6-8.7-6.1c-3-3.3-5.3-8.1-6.8-14.2c-1.5-6.2-1.9-12.4-2-16.5l0,0
				c-0.4-22.9,17.7-42.1,40.5-42.7c10.9-0.3,20.9,3.5,28,10.8c7,7.2,11,17.3,11.2,28.5c0.2,11.4-3.4,22.1-10.1,30.3
				c-7,8.5-16.7,13.3-27.5,13.6c-7.2,0.2-13.2-0.3-18.3-1.5C807,386.5,804.9,385.8,802.9,384.9z"/>
			<path id="Path_12_" class="st0" d="M735.7,338.6c-0.1-7.9,1.2-15.2,3.9-21.7c3.6-8.5,10.5-17,20.7-25.3
				c10.3-8.3,21.6-14.6,29.3-18.4l0,0c42.7-21,94.7-3.6,115.8,38.8c10.1,20.3,11.6,42.5,4.2,62.3c-7.3,19.5-22.8,35.9-43.7,46.2
				c-21.2,10.4-44.5,13.1-65.8,7.6c-22-5.7-39.7-19.9-49.7-40c-6.7-13.5-11-25.2-13.1-35.8C736.3,347.8,735.8,343.2,735.7,338.6z"/>
			<path id="Path_13_" class="st1" d="M1553.6,140.2c-3.9,2.6-8,4.2-12.1,4.9c-5.4,0.9-11.8,0.1-19.1-2.3
				c-7.4-2.5-14.1-6.2-18.4-8.8l0,0c-23.8-14.6-31.2-45.9-16.5-69.8c7.1-11.4,17.8-19.1,30-21.7c12.1-2.5,25.2,0.1,36.8,7.2
				c11.8,7.3,20.5,18,24.3,30.3c4,12.7,2.3,26-4.7,37.3c-4.7,7.6-9.2,13.4-14,17.8C1558.1,137.1,1555.9,138.8,1553.6,140.2z"/>
			<path id="Path-Copy-2_1_" class="st1" d="M1615.5,118.6c-0.3,1-1.9,1.6-4.8,1.6c-3.7,0-10.5-1-20.2-2.9c-9.8-2-20.4-4.5-27.6-6.3
				l0,0C1523,101,1477,83.5,1460.3,72c-8-5.5-8.1-8.8-0.2-9.1c7.8-0.3,22.8,2.2,42.3,7.1c19.8,4.9,41.1,11.5,60,18.4
				c19.6,7.2,34.7,14.2,42.6,19.6c5.3,3.7,8.5,6.4,9.8,8.4C1615.5,117.2,1615.7,118,1615.5,118.6z"/>
			<path id="Path-Copy_1_" class="st1" d="M1468.3,706.4c-1-0.5-1.8-1.2-2.5-2c-0.8-1-1.4-2.5-1.7-4.4c-0.3-1.9-0.3-3.8-0.2-5l0,0
				c0.4-6.9,6.2-12.3,13.1-12.1c3.3,0.1,6.2,1.5,8.2,3.8c1.9,2.3,2.9,5.4,2.7,8.8c-0.2,3.4-1.5,6.6-3.7,8.9
				c-2.3,2.4-5.3,3.7-8.6,3.5c-2.2-0.1-4-0.4-5.4-0.8C1469.5,706.9,1468.9,706.7,1468.3,706.4z"/>
		</g>
	</g>
</g>
</svg>
