<?xml version="1.0" encoding="UTF-8"?>
<svg width="77px" height="77px" viewBox="0 0 77 77" version="1.1" xmlns="http://www.w3.org/2000/svg" xmlns:xlink="http://www.w3.org/1999/xlink">
    <!-- Generator: Sketch 64 (93537) - https://sketch.com -->
    <title>Group 9</title>
    <desc>Created with Sketch.</desc>
    <g id="-" stroke="none" stroke-width="1" fill="none" fill-rule="evenodd">
        <g id="imagineyourdata-post" transform="translate(-1157.000000, -2774.000000)">
            <g id="Group-9" transform="translate(1157.000000, 2774.000000)">
                <circle id="Oval" fill="#0D2132" opacity="0.602678571" cx="38.5" cy="38.5" r="38.5"></circle>
                <path d="M31.428066,44.819566 C31.6510094,44.6188268 31.8663964,44.6338667 32.0742268,44.8646857 C32.2820571,45.0955048 32.2745006,45.3112839 32.0515572,45.5120231 L32.0515572,45.5120231 L22.8554891,54.1308604 L28.5298229,54.1064306 C28.8678714,54.1300356 29.0758722,54.2200337 29.0645374,54.5437023 C29.0532026,54.867371 28.8678714,54.9890282 28.5298229,54.9852682 C24.7173856,54.9852682 22.0912093,54.988622 21.7658171,54.9858272 L21.7325053,54.9852682 C21.6248119,54.9777482 21.5190075,54.9162835 21.4150923,54.800874 C21.3111772,54.6854645 21.2611087,54.5738149 21.264887,54.4659254 L21.264887,54.4659254 L21.1798373,47.6463237 C21.1836156,47.5384341 21.2412405,47.4343046 21.3527123,47.333935 L21.3527123,47.333935 L21.68146,47.1946605 C22.0045404,47.2172204 22.1604132,47.3903347 22.1490784,47.7140033 L22.1490784,47.7140033 L22.231998,53.4384033 Z M45.7517713,44.819566 L54.9478393,53.4384033 L55.0307589,47.7140033 C55.0194241,47.3903347 55.1752969,47.2172204 55.4983772,47.1946605 L55.827125,47.333935 C55.9385967,47.4343046 55.9962217,47.5384341 56,47.6463237 L55.9149503,54.4659254 C55.9187286,54.5738149 55.8686601,54.6854645 55.7647449,54.800874 C55.6608297,54.9162835 55.5550254,54.9777482 55.447332,54.9852682 L55.4140202,54.9858272 C55.088628,54.988622 52.4624517,54.9852682 48.6500144,54.9852682 C48.3119659,54.9890282 48.1266347,54.867371 48.1152999,54.5437023 C48.1039651,54.2200337 48.3119659,54.1300356 48.6500144,54.1064306 L54.3243482,54.1308604 L45.1282801,45.5120231 C44.9053367,45.3112839 44.8977801,45.0955048 45.1056105,44.8646857 C45.3134409,44.6338667 45.5288278,44.6188268 45.7517713,44.819566 Z M28.5298229,22.0147318 C28.8678714,22.0109718 29.0532026,22.132629 29.0645374,22.4562977 C29.0758722,22.7799663 28.8678714,22.8699644 28.5298229,22.8935694 L22.8554891,22.8691396 L32.0515572,31.4879769 C32.2745006,31.6887161 32.2820571,31.9044952 32.0742268,32.1353143 C31.8663964,32.3661333 31.6510094,32.3811732 31.428066,32.180434 L22.231998,23.5615967 L22.1490784,29.2859967 C22.1604132,29.6096653 22.0045404,29.7827796 21.68146,29.8053395 L21.3527123,29.666065 C21.2412405,29.5656954 21.1836156,29.4615659 21.1798373,29.3536763 L21.264887,22.5340746 C21.2611087,22.4261851 21.3111772,22.3145355 21.4150923,22.199126 C21.5190075,22.0837165 21.6248119,22.0222518 21.7325053,22.0147318 L21.7658171,22.0141728 C22.0912093,22.011378 24.7173856,22.0147318 28.5298229,22.0147318 Z M48.6500144,22.0147318 C52.4624517,22.0147318 55.088628,22.011378 55.4140202,22.0141728 L55.447332,22.0147318 C55.5550254,22.0222518 55.6608297,22.0837165 55.7647449,22.199126 C55.8686601,22.3145355 55.9187286,22.4261851 55.9149503,22.5340746 L55.9149503,22.5340746 L56,29.3536763 C55.9962217,29.4615659 55.9385967,29.5656954 55.827125,29.666065 L55.827125,29.666065 L55.4983772,29.8053395 C55.1752969,29.7827796 55.0194241,29.6096653 55.0307589,29.2859967 L55.0307589,29.2859967 L54.9478393,23.5615967 L45.7517713,32.180434 C45.5288278,32.3811732 45.3134409,32.3661333 45.1056105,32.1353143 C44.8977801,31.9044952 44.9053367,31.6887161 45.1282801,31.4879769 L45.1282801,31.4879769 L54.3243482,22.8691396 L48.6500144,22.8935694 C48.3119659,22.8699644 48.1039651,22.7799663 48.1152999,22.4562977 C48.1266347,22.132629 48.3119659,22.0109718 48.6500144,22.0147318 Z" id="Combined-Shape" stroke="#FFFFFF" stroke-width="0.9" fill="#FFFFFF" fill-rule="nonzero"></path>
            </g>
        </g>
    </g>
</svg>