<svg id="Capa_1" data-name="Capa 1" xmlns="http://www.w3.org/2000/svg" xmlns:xlink="http://www.w3.org/1999/xlink" viewBox="0 0 53.2 53"><defs><style>.cls-1{fill:#fff;fill-rule:evenodd;}.cls-2{fill:#243d48;}.cls-3{mask:url(#mask);}.cls-4{fill:#3e9be7;}</style><mask id="mask" x="0" y="0" width="53.2" height="53" maskUnits="userSpaceOnUse"><g transform="translate(0 17)"><g id="mask-2"><path id="path-1" class="cls-1" d="M41.73,20.25a.86.86,0,0,0,.61-.2l8.12-8.94a.82.82,0,0,0,.2-.61.82.82,0,0,0-.2-.61L42.34,1a.77.77,0,0,0-1.22,0,.76.76,0,0,0,0,1.22l6.8,7.52H19a.72.72,0,0,0-.82.81.72.72,0,0,0,.82.81H47.92l-6.8,7.52a.76.76,0,0,0,0,1.22"/></g></g></mask></defs><title>link-arrow</title><g id="Symbols"><g id="buttons-_-arrow-" data-name="buttons-/-arrow-"><g id="Group"><g id="Mask-2-2" data-name="Mask"><path id="path-1-2" data-name="path-1" class="cls-2" d="M41.73,20.25a.86.86,0,0,0,.61-.2l8.12-8.94a.82.82,0,0,0,.2-.61.82.82,0,0,0-.2-.61L42.34,1a.77.77,0,0,0-1.22,0,.76.76,0,0,0,0,1.22l6.8,7.52H19a.72.72,0,0,0-.82.81.72.72,0,0,0,.82.81H47.92l-6.8,7.52a.76.76,0,0,0,0,1.22" transform="translate(0 17)"/></g><g class="cls-3"><g id="colours-_-blue" data-name="colours-/-blue"><g id="Rectangle"><rect class="cls-4" width="53.2" height="53"/></g></g></g></g></g></g></svg>