<?xml version="1.0" encoding="UTF-8"?>
<svg width="1920px" height="636px" viewBox="0 0 1920 636" version="1.1" xmlns="http://www.w3.org/2000/svg" xmlns:xlink="http://www.w3.org/1999/xlink">
    <!-- Generator: Sketch 64 (93537) - https://sketch.com -->
    <title>lines</title>
    <desc>Created with Sketch.</desc>
    <defs>
        <rect id="path-1" x="0.224055101" y="0.257827578" width="1920" height="636"></rect>
    </defs>
    <g id="lines" stroke="none" stroke-width="1" fill="none" fill-rule="evenodd" opacity="0.276832217">
        <g id="Mask" transform="translate(-0.224055, -0.257828)">
            <mask id="mask-2" fill="white">
                <use xlink:href="#path-1"></use>
            </mask>
            <g></g>
            <path d="M1505.54597,-275 L1506.88197,-272.313904 L1151.45883,-95.5379761 C1181.52122,-98.9032131 1209.73323,-103.196773 1236.89292,-108.623549 C1347.72237,-130.768374 1440.17539,-172.004584 1521.05468,-240.270512 L1523.50203,-242.347458 L1525.4493,-240.065325 C1443.57329,-170.203143 1349.90543,-128.145272 1237.48073,-105.6817 C1207.80677,-99.7525476 1176.89031,-95.1731826 1143.69734,-91.6773492 L986.047299,-13.2679011 C1003.57333,-15.4024027 1022.68629,-17.4009116 1045.11199,-19.513275 L1063.34727,-21.1948201 L1087.37052,-23.3541521 C1155.79453,-29.5211428 1187.78292,-33.0682843 1226.24895,-39.5288662 L1227.45317,-39.731714 C1298.35134,-51.7095818 1359.48328,-71.4364927 1412.79788,-101.613765 C1473.47619,-135.959064 1522.97472,-183.428409 1560.80863,-246.437816 L1561.95154,-248.351951 L1564.89554,-246.603667 C1526.60791,-182.118948 1476.28699,-133.615497 1414.48444,-98.6338516 C1360.79017,-68.2416794 1299.28739,-48.3951026 1228.0236,-36.3554644 L1225.61241,-35.9504926 C1188.36773,-29.7320878 1156.83181,-26.2051234 1091.91863,-20.326978 L1051.62744,-16.6828945 L1045.97788,-16.1548355 C1020.42112,-13.7448966 997.593741,-11.297786 976.719596,-8.62914767 L830.939617,63.8774577 C734.241801,111.933562 688.941044,133.457366 632.163009,157.116959 L627.585152,159.016618 C593.270097,173.196314 560.326983,185.454348 528.167271,195.858779 L507.389538,210.430147 C474.805319,233.239498 456.538501,245.771279 434.61641,260.273774 L430.735719,262.834518 C397.876671,284.461358 368.219173,302.547632 339.277852,318.340436 C327.950063,324.521829 316.532049,330.451169 305.027641,336.128037 C319.979708,338.134923 333.651295,339.82319 348.059345,341.452815 C397.62613,347.059077 441.434136,349.850234 483.11825,349.627613 C562.805162,349.202375 643.241349,337.721904 726.761391,315.828769 C800.21132,296.575316 875.627051,269.454933 958.356186,233.52107 L965.668652,230.331729 C1037.22669,199.010597 1096.3216,169.994654 1221.23251,106.280079 L1253.72688,89.7057093 C1332.56573,49.5378641 1371.80507,30.0054764 1420.29572,7.09732746 C1490.72647,-26.1758569 1553.40242,-52.8381819 1613.98883,-74.6947776 C1756.21133,-126.001656 1885.91558,-150.059589 2015.1331,-144.56355 L2019.04865,-144.387955 L2018.44156,-140.939222 C1888.68274,-147.058478 1758.48081,-123.161233 1615.43489,-71.5573038 C1556.69883,-50.3682237 1495.9634,-24.6368731 1428.03798,7.29326108 L1422.19807,10.0453491 C1373.23243,33.1778987 1333.69485,52.8724338 1253.14441,93.9224471 L1211.74076,115.039239 C1092.04082,176.023164 1034.42155,204.14626 962.940014,235.30498 C878.870614,271.950739 802.325812,299.559706 727.750928,319.108044 C643.813863,341.110494 562.934047,352.654282 482.782735,353.081999 C442.372098,353.297818 400.013422,350.698665 352.43051,345.467244 L347.121854,344.875152 C331.197741,343.074051 316.176049,341.202179 299.346251,338.902866 C97.6082353,436.758974 -130.373924,457.334338 -364.097225,398.394419 L-371.653168,396.461783 L-370.793712,393.147362 C-136.996128,453.788636 91.1886188,434.669139 293.215045,338.059963 C276.116819,335.678953 256.936021,332.841327 233.056598,329.200349 L205.352641,324.94568 L195.781284,323.472591 C94.3251622,307.894407 47.2220498,301.894317 -10.7865992,298.565949 C-99.6911242,293.464865 -180.650403,301.06063 -252.851853,323.414551 C-333.975602,348.530859 -402.791044,391.947853 -457.897334,455.823217 L-459.563024,457.765098 L-463,455.969357 C-407.064341,390.38311 -336.897254,345.844384 -254.06687,320.199694 C-181.928577,297.865327 -101.24671,290.139927 -12.8096917,294.96974 L-10.1274091,295.119939 C48.090227,298.460298 95.2960118,304.473287 196.902538,320.074512 L223.454847,324.161952 C254.747827,328.963161 278.259183,332.456985 298.945266,335.295782 C311.953936,328.964797 324.853535,322.310843 337.63779,315.33468 C366.489007,299.591044 396.068931,281.552042 428.855185,259.973067 L435.831997,255.360997 C458.874731,240.070828 478.740953,226.353209 517.273259,199.322148 C483.304749,209.924782 450.143509,218.446905 417.085799,224.969101 C342.852326,239.615464 262.712018,245.460772 170.166564,244.377599 L167.358353,244.342657 C99.1199228,243.443355 42.714558,240.052893 -75.928133,230.774554 L-90.7119807,229.613469 C-114.648628,243.01897 -141.854634,258.374744 -174.869822,277.079063 L-192.819194,287.253139 L-194.299039,284.64353 L-170.604782,271.215364 C-141.903215,254.960964 -117.65765,241.278148 -96.0938367,229.190128 L-124.914642,226.927309 L-144.063179,225.450333 C-167.561556,223.656966 -187.284889,222.231158 -206.318278,220.967611 L-212.010682,220.593209 L-211.815629,217.599557 L-201.534668,218.280808 C-180.826949,219.67564 -159.028444,221.278824 -132.251095,223.349072 L-91.3860173,226.552554 C-51.2220358,204.063507 -20.2335691,187.051683 13.6791401,168.855742 L22.2484087,164.266824 C98.1730394,123.699053 166.192268,89.8912358 231.938882,60.5334596 C391.100267,-10.5367309 535.749757,-54.648978 678.956374,-71.6775101 C714.287786,-75.8786619 751.590748,-78.7106525 793.883765,-80.6238746 L802.419938,-80.9956508 C830.133685,-82.1625166 854.3402,-82.8136921 898.93714,-83.6903004 L939.689746,-84.4723111 C1006.15611,-85.7888744 1040.49304,-86.9292065 1081.08683,-89.4920878 L1085.70686,-89.7898161 C1105.56543,-91.0957815 1124.55406,-92.685818 1142.84626,-94.6044715 L1505.54597,-275 Z M1083.62608,-86.6479836 L1077.31816,-86.2514895 C1036.60144,-83.7495304 1001.02263,-82.6502798 930.896412,-81.3000834 L902.221116,-80.7539755 C853.404681,-79.8032152 828.64406,-79.1315395 798.56426,-77.8281798 L794.020869,-77.6270086 C751.795483,-75.7168692 714.562897,-72.8902406 679.310602,-68.6984965 C536.435071,-51.7093333 392.066999,-7.6829077 233.162064,63.2727707 L228.828412,65.2128437 C163.772242,94.411426 96.3630075,128.013483 21.1574076,168.252071 L11.5687313,173.394048 C-19.8578905,190.281237 -49.1123825,206.342531 -85.996968,226.974447 L-72.0145547,228.071117 C42.8350409,237.031783 98.7699786,240.383402 165.271815,241.314034 L167.397886,241.342917 C260.938737,242.575675 341.747843,236.775545 416.505095,222.02584 C452.388065,214.946228 488.401643,205.500235 525.453332,193.581915 L542.907434,181.33169 L548.565371,177.369853 C608.83225,135.210404 646.30998,110.354238 687.012239,86.5144081 C740.546864,55.1584994 790.084997,32.0549685 839.679803,16.3881008 C871.712654,6.26908751 905.866896,-1.3944258 944.1756,-7.44630567 L948.564963,-8.1305934 L950.708859,-8.45819443 C959.296956,-9.76182681 967.989471,-10.9771 977.04613,-12.1416143 L1135.22419,-90.813283 C1118.64253,-89.1769057 1101.48464,-87.7991534 1083.62608,-86.6479836 Z M840.711203,19.6531707 C791.984923,35.0456731 743.274054,57.6739664 690.691931,88.3299797 L688.742668,89.4690598 C648.139052,113.251113 610.722136,138.067024 550.524064,180.17838 L536.63203,189.92177 C567.166748,179.749901 598.459398,167.911322 631.009077,154.347764 L636.185653,152.183163 C691.66993,128.900137 737.833006,106.836457 835.588664,58.2157481 L967.5712,-7.42829374 C918.122874,-0.762275559 879.568504,7.37834859 840.711203,19.6531707 Z" fill="#0086B2" fill-rule="nonzero" mask="url(#mask-2)"></path>
        </g>
    </g>
</svg>