<?xml version="1.0" encoding="UTF-8"?>
<svg width="1920px" height="381px" viewBox="0 0 1920 381" version="1.1" xmlns="http://www.w3.org/2000/svg" xmlns:xlink="http://www.w3.org/1999/xlink">
    <!-- Generator: Sketch 64 (93537) - https://sketch.com -->
    <title>Mask</title>
    <desc>Created with Sketch.</desc>
    <defs>
        <rect id="path-1" x="0.224055101" y="0.257827578" width="1920" height="636"></rect>
    </defs>
    <g id="symbols" stroke="none" stroke-width="1" fill="none" fill-rule="evenodd" opacity="0.276832217">
        <g id="lines">
            <g id="Mask" transform="translate(-0.224055, -0.257828)">
                <mask id="mask-2" fill="white">
                    <use xlink:href="#path-1"></use>
                </mask>
                <g></g>
                <path d="M1451.87159,-396.940594 L1453.70505,-394.364964 L1021.27798,-86.5567194 C1042.73465,-87.3184128 1061.15664,-88.2337989 1081.08683,-89.4920878 L1085.70686,-89.7898161 C1141.72659,-93.4738592 1190.82363,-99.4184475 1236.89292,-108.623549 C1347.72237,-130.768374 1440.17539,-172.004584 1521.05468,-240.270512 L1523.50203,-242.347458 L1525.4493,-240.065325 C1443.57329,-170.203143 1349.90543,-128.145272 1237.48073,-105.6817 C1190.64611,-96.3236769 1140.71636,-90.3280456 1083.62608,-86.6479836 L1077.31816,-86.2514895 C1057.47147,-85.031951 1038.8455,-84.1456839 1016.8443,-83.4011785 L805.510724,67.0289997 C712.776143,132.994565 669.168982,162.868094 613.966793,196.857237 L609.514681,199.589415 C536.905019,243.999771 469.553122,277.876726 401.270229,302.947912 C399.217857,303.701483 397.159772,304.4489 395.095842,305.190226 C414.618701,311.627126 433.518691,317.250856 452.147283,322.135893 C529.228989,342.349635 609.895743,352.078769 696.23627,352.548202 C772.166613,352.961034 852.031888,346.283783 941.242464,332.986213 L949.131225,331.798152 C1026.35749,320.064846 1090.94867,307.332485 1228.09389,278.118253 L1263.7708,270.518802 C1350.31948,252.12464 1393.27713,243.41369 1446.04456,233.836421 C1522.68718,219.925814 1590.12822,210.393714 1654.3071,204.962781 C1804.96269,192.214035 1936.47401,202.545783 2059.86608,241.298507 L2063.60276,242.481537 L2062.12376,245.65563 C1938.37015,206.16083 1806.41968,195.545057 1654.89185,208.367615 C1592.67303,213.632683 1527.34735,222.767774 1453.4723,236.029523 L1447.11909,237.176357 C1393.83477,246.847442 1350.54708,255.637825 1262.1168,274.441104 L1216.65853,284.122307 C1085.25346,312.047631 1022.31872,324.299489 945.208392,335.89572 C854.518966,349.534043 773.436639,356.391005 696.34335,355.971849 C609.571719,355.500072 528.460063,345.717279 450.929139,325.385736 C430.983507,320.155328 410.737656,314.085715 389.76489,307.087693 C317.971108,332.38721 239.03646,350.452489 147.442907,363.864666 L144.513985,364.291343 C73.3340605,374.607155 14.0609372,380.378788 -110.967662,390.284164 L-162.593542,394.357036 L-182.769362,395.977087 C-207.52523,397.985058 -228.290939,399.753147 -248.311717,401.576367 L-254.298848,402.125281 L-254.589276,398.977064 L-243.775181,397.990934 C-221.989896,396.028286 -199.034832,394.10265 -170.820132,391.842207 L-107.339514,386.824877 C13.6883601,377.214287 72.4653974,371.479792 141.842808,361.482939 L144.060667,361.162433 C235.080181,347.971351 313.55849,330.236971 384.883389,305.44575 C366.274747,299.14402 347.074542,292.113215 326.989402,284.292809 L322.01488,282.34691 C290.573076,269.991421 263.086146,258.370053 215.89324,237.683953 L190.234462,226.403946 L181.370505,222.503803 C114.361778,193.048061 72.7903773,175.45073 34.4460451,161.167771 C30.0439518,163.506003 25.6143708,165.867382 21.1574076,168.252071 L11.5687313,173.394048 C-41.2202468,201.760362 -87.8804047,227.796356 -174.869822,277.079063 L-192.819194,287.253139 L-194.299039,284.64353 L-170.604782,271.215364 C-85.3670862,222.94317 -39.4298415,197.351486 13.6791401,168.855742 L22.2484087,164.266824 C25.0701751,162.759108 27.8810219,161.26073 30.6812385,159.77157 C16.5817021,154.571387 2.82429813,149.785155 -11.7124355,144.982131 C-96.2673546,117.044678 -176.433942,103.427821 -251.960807,106.33294 C-336.820911,109.597059 -414.528667,133.723908 -484.289417,181.160214 L-486.400946,182.604815 L-489.256038,179.980708 C-418.251371,131.106472 -338.947699,106.245945 -252.302357,102.913157 C-176.841558,100.010579 -96.9093776,113.430419 -12.7358254,140.984845 L-10.1838137,141.824152 C5.2533588,146.924686 19.8099624,152.004349 34.8165102,157.57481 C105.715285,119.960531 169.840775,88.2620713 231.938882,60.5334596 C391.100267,-10.5367309 535.749757,-54.648978 678.956374,-71.6775101 C714.287786,-75.8786619 751.590748,-78.7106525 793.883765,-80.6238746 L802.419938,-80.9956508 C830.133685,-82.1625166 854.3402,-82.8136921 898.93714,-83.6903004 L939.689746,-84.4723111 C970.657051,-85.0857103 994.649968,-85.6608548 1015.55072,-86.3594383 L1451.87159,-396.940594 Z M930.896412,-81.3000834 L902.221116,-80.7539755 C853.404681,-79.8032152 828.64406,-79.1315395 798.56426,-77.8281798 L794.020869,-77.6270086 C751.795483,-75.7168692 714.562897,-72.8902406 679.310602,-68.6984965 C536.435071,-51.7093333 392.066999,-7.6829077 233.162064,63.2727707 L228.828412,65.2128437 C168.835177,92.1390739 106.840876,122.810056 38.5767299,158.977012 C76.3554094,173.136212 117.649038,190.638334 183.33304,219.511712 L207.922694,230.332119 C261.26729,253.774012 290.297023,266.115939 323.806192,279.283828 C347.003599,288.399568 368.994186,296.464343 390.222337,303.571569 C393.557577,302.39038 396.876554,301.19321 400.180596,299.980062 C469.640388,274.476759 538.163823,239.817925 612.309159,194.16509 L617.340824,191.058414 C671.25837,157.674565 715.674155,127.096896 809.416813,60.369213 L1011.12954,-83.2133756 C989.283747,-82.516126 963.920958,-81.9359315 930.896412,-81.3000834 Z" fill="#0086B2" fill-rule="nonzero" mask="url(#mask-2)"></path>
            </g>
        </g>
    </g>
</svg>