<?xml version="1.0" encoding="UTF-8"?>
<svg width="14px" height="11px" viewBox="0 0 14 11" version="1.1" xmlns="http://www.w3.org/2000/svg" xmlns:xlink="http://www.w3.org/1999/xlink">
    <!-- Generator: Sketch 63.1 (92452) - https://sketch.com -->
    <title>Fill 3</title>
    <desc>Created with Sketch.</desc>
    <g id="Page-1" stroke="none" stroke-width="1" fill="none" fill-rule="evenodd" opacity="0.6171875">
        <g id="imagineyourdata-home_viewed_by_categories_select" transform="translate(-1207.000000, -1914.000000)" fill="#FFFFFF">
            <g id="Group-7-Copy" transform="translate(1160.000000, 1863.000000)">
                <path d="M61,52.3024848 C60.4855063,52.5228195 59.931584,52.6724983 59.3497733,52.7394354 C59.9431241,52.395453 60.3989559,51.8525186 60.6134084,51.2036004 C60.0585245,51.5215517 59.4430554,51.7521129 58.7891194,51.8766903 C58.2650089,51.3374746 57.5187526,51 56.6926776,51 C55.1059211,51 53.8201676,52.2439148 53.8201676,53.7769608 C53.8201676,53.9945064 53.845171,54.206474 53.8951779,54.4100744 C51.5073499,54.2938641 49.390713,53.1884719 47.9741723,51.5085362 C47.7270229,51.918526 47.5846957,52.395453 47.5846957,52.9049189 C47.5846957,53.8680696 48.0924578,54.7177992 48.8627559,55.2161089 C48.392499,55.2012339 47.9491688,55.0766565 47.5616156,54.8684077 C47.5616156,54.8795639 47.5616156,54.8916498 47.5616156,54.9037356 C47.5616156,56.2489858 48.5521363,57.3711122 49.8657783,57.6258452 C49.6253606,57.6899932 49.3714796,57.7234618 49.1099052,57.7234618 C48.9243028,57.7234618 48.7444704,57.7057978 48.5694464,57.6741886 C48.9348812,58.7767918 49.9946421,59.5800372 51.2525072,59.6023496 C50.2687182,60.347025 49.0310482,60.7904834 47.6847094,60.7904834 C47.4529468,60.7904834 47.2240692,60.7774679 47,60.7523665 C48.2703668,61.5398073 49.7801896,62 51.4025278,62 C56.6859459,62 59.5748042,57.7680865 59.5748042,54.0986308 C59.5748042,53.9787018 59.5719192,53.8587728 59.5661492,53.7397735 C60.1277648,53.3483773 60.6153318,52.8593644 61,52.3024848" id="Fill-3"></path>
            </g>
        </g>
    </g>
</svg>